<svg width="218" height="55" viewBox="0 0 218 55" fill="none" xmlns="http://www.w3.org/2000/svg">
<path d="M114.197 0H114.68L114.769 17.3672C114.769 17.3707 114.77 17.3741 114.772 17.377C114.773 17.38 114.776 17.3824 114.779 17.3841C114.782 17.3857 114.785 17.3865 114.789 17.3863C114.792 17.3861 114.795 17.385 114.798 17.3831C118.491 15.0864 122.584 12.7414 127.145 13.4699C130.439 13.9962 133.651 15.9275 135.919 18.3125C138.933 21.4835 140.774 25.7983 141.401 30.1758C142.488 37.7688 140.137 45.4932 134.605 50.8084C132.705 52.634 130.03 53.765 127.416 54.2135C123.001 54.9707 118.06 54.212 114.432 51.4517C114.427 51.4484 114.422 51.4464 114.417 51.4457C114.412 51.4451 114.406 51.4459 114.401 51.4481C114.397 51.4502 114.392 51.4536 114.389 51.458C114.386 51.4623 114.384 51.4675 114.384 51.4728L114.113 54.1312C114.112 54.144 114.106 54.1558 114.096 54.1643C114.087 54.1729 114.075 54.1775 114.062 54.1772L103.864 54.1274C103.796 54.1269 103.761 54.0919 103.761 54.0224L103.478 0.248395C103.477 0.241553 103.479 0.234759 103.481 0.228401C103.484 0.222042 103.487 0.216243 103.492 0.211335C103.497 0.206428 103.503 0.202507 103.509 0.199798C103.515 0.197088 103.522 0.195643 103.529 0.195545L114.197 0ZM117.512 42.4166C119.36 44.2467 121.514 44.8409 123.973 44.1992C126.012 43.6676 127.616 42.4476 128.603 40.5457C130.351 37.1784 130.402 32.9285 129.256 29.3883C128.676 27.596 127.6 25.753 126.02 24.73C123.803 23.2947 121.18 23.7674 118.983 24.9927C116.081 26.6107 114.602 29.4933 114.326 32.7481C114.031 36.2249 115 39.9304 117.512 42.4166Z" fill="white"/>
<path d="M155.708 38.3255C156.439 40.8706 157.748 42.9718 160.232 44.0665C162.46 45.0495 165.229 44.9702 167.682 44.521C171.27 43.8642 174.836 42.5897 178.317 41.2836C178.322 41.2816 178.328 41.2809 178.333 41.2815C178.338 41.2821 178.343 41.284 178.347 41.2871C178.352 41.2902 178.355 41.2942 178.358 41.299C178.36 41.3038 178.362 41.3091 178.362 41.3145C178.347 44.0159 178.215 46.9038 177.506 49.4904C177.405 49.8596 177.167 50.706 176.813 50.9831C170.694 55.7743 161.655 55.6044 154.915 52.5836C149.534 50.1714 145.799 45.1892 144.517 39.4542C143.418 34.5392 144.052 29.338 146.058 24.7423C149.168 17.6181 155.707 12.349 163.737 13.1357C165.899 13.3471 167.996 13.9242 170.026 14.8669C178.724 18.9024 180.555 29.2413 180.184 37.7675C180.184 37.78 180.178 37.7918 180.17 37.8005C180.161 37.8092 180.149 37.8142 180.136 37.8144L155.748 38.2711C155.711 38.2716 155.698 38.2898 155.708 38.3255ZM155.756 29.9488L168.966 29.9744C168.97 29.9745 168.974 29.9737 168.977 29.972C168.981 29.9704 168.984 29.968 168.987 29.965C168.989 29.962 168.991 29.9585 168.992 29.9547C168.994 29.9508 168.994 29.9468 168.994 29.9427C168.623 27.2195 167.263 24.3489 164.584 23.2331C162.21 22.2433 159.652 23.0496 157.994 24.9378C156.754 26.3474 156.058 28.0779 155.726 29.9133C155.725 29.9176 155.726 29.9221 155.727 29.9263C155.728 29.9305 155.73 29.9345 155.733 29.9379C155.735 29.9412 155.739 29.944 155.743 29.9459C155.747 29.9477 155.751 29.9487 155.756 29.9488Z" fill="white"/>
<path d="M53.8524 17.4489C53.8525 17.4518 53.8535 17.4546 53.8552 17.4569C53.857 17.4593 53.8593 17.4611 53.862 17.4621C53.8647 17.4631 53.8676 17.4634 53.8704 17.4628C53.8733 17.4622 53.8758 17.4608 53.8779 17.4587C57.1023 13.8853 61.7196 12.9499 66.3128 13.686C67.9571 13.9493 69.4358 14.5887 70.749 15.6045C71.8699 16.472 72.9269 17.7351 73.999 18.4848C74.021 18.4999 74.0423 18.4986 74.0628 18.481C76.397 16.4667 78.5163 14.3874 81.4988 13.7117C82.2591 13.539 83.0792 13.4396 83.9592 13.4135C86.9567 13.3251 89.8356 13.7343 92.3854 15.4829C94.6572 17.0412 96.3017 19.381 97.0627 22.0272C97.8771 24.857 98.1047 27.9555 98.0664 30.9362C98.0296 33.7728 97.8651 36.6025 97.7276 39.4345C97.6089 41.8897 97.6592 44.5451 98.0769 46.9799C98.5202 49.5598 99.5922 51.9826 101.372 53.9169C101.376 53.9216 101.379 53.9275 101.38 53.9339C101.381 53.9402 101.381 53.9468 101.378 53.9527C101.376 53.9586 101.371 53.9637 101.366 53.9673C101.361 53.9708 101.354 53.9727 101.348 53.9728L90.2631 54.0807C90.2466 54.0807 90.2303 54.0746 90.2172 54.0634C87.1716 51.4375 86.6187 47.1279 86.5158 43.3703C86.4496 40.9694 86.5653 38.5511 86.6698 36.151C86.7712 33.8181 86.8523 31.43 86.5796 29.1061C86.3114 26.82 85.4632 24.336 82.8969 23.8453C81.9571 23.6663 80.8693 23.6996 79.9692 24.0053C77.4608 24.8577 76.6051 27.4942 76.3271 29.9328C76.0574 32.3043 76.098 34.5897 76.1536 36.9241C76.2182 39.6542 76.0664 42.7029 76.0822 45.168C76.0957 47.1717 76.5397 48.7776 77.3766 50.6077C77.8725 51.6909 78.3923 52.7605 78.9363 53.8165C78.9398 53.8234 78.9416 53.8312 78.9414 53.839C78.9411 53.8468 78.9389 53.8545 78.9349 53.8612C78.931 53.8679 78.9253 53.8735 78.9186 53.8774C78.9119 53.8814 78.9042 53.8835 78.8965 53.8837L67.8957 54.1019C67.8722 54.1024 67.8521 54.0943 67.8356 54.0777C65.7794 51.9622 65.1416 48.5292 64.9793 45.6821C64.7629 41.8875 65.0319 38.1231 65.1243 34.339C65.1724 32.3579 65.1423 30.3043 64.7712 28.3745C64.3084 25.9683 63.1177 24.0091 60.4695 23.6527C57.0948 23.199 55.6298 26.1684 54.9785 28.9181C54.2971 31.7931 54.1341 34.7716 54.0973 37.7176C54.0439 42.0483 54.4135 47.7516 54.4271 51.1181C54.4311 52.0759 54.4003 53.0305 54.3347 53.9818C54.3337 53.997 54.3271 54.0113 54.3161 54.0218C54.3051 54.0323 54.2905 54.0383 54.2753 54.0384L43.5601 54.1253C43.528 54.1253 43.512 54.1092 43.512 54.0769L43.249 14.3783C43.2485 14.3366 43.2691 14.3154 43.3106 14.3149L53.4647 14.1685C53.4764 14.1682 53.4879 14.1707 53.4985 14.1757C53.509 14.1806 53.5183 14.188 53.5256 14.1971C53.6783 14.3874 53.7602 14.6255 53.7712 14.9114C53.8043 15.7585 53.8313 16.6043 53.8524 17.4489Z" fill="white"/>
<path d="M16.6924 54.7374H16.204C12.7941 54.6151 9.65453 53.121 7.09122 50.9035C2.48973 46.9239 0.465832 40.625 0.319336 34.6869V33.6118C0.438035 28.893 1.64907 23.9795 4.41222 20.1245C6.98204 16.5387 10.4779 14.3689 14.8998 13.6149C19.427 12.8433 24.1306 14.1185 27.1905 17.6458C27.2105 17.669 27.2301 17.669 27.2491 17.6458C27.3428 17.5336 27.3948 17.402 27.4054 17.251C27.4722 16.2876 27.4519 15.3393 27.6037 14.3797C27.6192 14.281 27.6768 14.2312 27.7765 14.2302L38.183 14.1404C38.1901 14.1403 38.1971 14.1416 38.2036 14.1442C38.2102 14.1469 38.2162 14.1508 38.2212 14.1558C38.2262 14.1608 38.2302 14.1667 38.2329 14.1733C38.2357 14.1798 38.2371 14.1869 38.2371 14.194L38.3212 53.9273C38.3212 53.9706 38.2997 53.9925 38.2566 53.993L27.7029 54.1025C27.6763 54.1025 27.663 54.0891 27.663 54.0624L27.6127 50.9466C27.6126 50.9388 27.6105 50.9313 27.6066 50.9246C27.6027 50.918 27.5971 50.9125 27.5903 50.9088C27.5836 50.905 27.576 50.9031 27.5684 50.9033C27.5607 50.9034 27.5532 50.9056 27.5466 50.9096C24.2313 52.8552 20.5929 54.5721 16.6924 54.7374ZM27.1544 31.0048C26.3145 26.9806 23.5777 23.155 18.9424 23.9629C17.5969 24.1977 16.4873 24.7451 15.3018 25.4034C13.9382 26.1607 13.205 27.2124 12.6859 28.6605C11.7633 31.2335 11.4733 34.1101 11.9872 36.8386C12.5424 39.7847 14.3109 42.8824 17.2107 44.0496C19.9972 45.1701 23.1615 44.0451 25.0411 41.8148C27.4437 38.9647 27.8892 34.5231 27.1544 31.0048Z" fill="white"/>
<path d="M197.959 40.1524C197.958 40.1613 197.96 40.1702 197.966 40.1773C197.971 40.1843 197.979 40.189 197.988 40.1903C197.997 40.1915 198.006 40.1893 198.013 40.1841C198.02 40.1788 198.025 40.171 198.027 40.1622L205.579 14.4635C205.59 14.4268 205.614 14.4082 205.652 14.4077L217.375 14.1864C217.419 14.1854 217.435 14.2063 217.421 14.2491L204.452 54.0919C204.447 54.1082 204.437 54.1223 204.423 54.1324C204.409 54.1424 204.393 54.1478 204.376 54.1478L192.174 54.0798C192.162 54.0798 192.151 54.0766 192.141 54.0705C192.131 54.0643 192.123 54.0555 192.117 54.0451C191.798 53.3857 191.509 52.7173 191.25 52.0398C190.396 49.7995 189.574 47.5476 188.785 45.2841C185.941 37.1311 183.248 28.928 180.707 20.6749C180.23 19.1279 179.792 17.5673 179.368 16.0052C179.21 15.4254 179.076 14.8357 178.964 14.2363C178.963 14.2269 178.963 14.2173 178.966 14.2082C178.968 14.199 178.973 14.1906 178.98 14.1836C178.986 14.1766 178.994 14.1712 179.003 14.1677C179.012 14.1643 179.021 14.1629 179.03 14.1638C179.48 14.2083 180.054 14.1736 180.367 14.1744C183.781 14.1819 187.189 14.1761 190.593 14.157C190.608 14.1568 190.622 14.1613 190.633 14.1699C190.645 14.1785 190.653 14.1907 190.657 14.2046C193.083 22.8105 195.511 31.42 197.94 40.0331C197.952 40.0764 197.959 40.1161 197.959 40.1524Z" fill="white"/>
</svg>
