<svg width="23" height="16" viewBox="0 0 23 16" fill="none" xmlns="http://www.w3.org/2000/svg">
<path d="M1 7C0.447715 7 0 7.44772 0 8C0 8.55228 0.447715 9 1 9V7ZM22.2941 8.70711C22.6847 8.31658 22.6847 7.68342 22.2941 7.29289L15.9302 0.928932C15.5397 0.538408 14.9065 0.538408 14.516 0.928932C14.1254 1.31946 14.1254 1.95262 14.516 2.34315L20.1728 8L14.516 13.6569C14.1254 14.0474 14.1254 14.6805 14.516 15.0711C14.9065 15.4616 15.5397 15.4616 15.9302 15.0711L22.2941 8.70711ZM1 9H21.587V7H1V9Z" fill="black"/>
</svg>
