<svg width="257" height="257" viewBox="0 0 257 257" fill="none" xmlns="http://www.w3.org/2000/svg">
<path d="M110.19 175.286C97.6396 175.286 87.1025 169.785 81.7675 160.669C79.9538 161.334 78.0138 161.998 75.9675 162.569C66.3406 165.28 54.1492 166.722 39.7255 166.868L35.8721 166.901L35.2808 84.6309L38.5229 84.0927C42.2568 83.4682 50.2227 83.1427 56.149 83.1427C90.5307 83.1427 97.7459 95.0617 97.7459 105.067C97.7442 109.644 96.0931 114.066 93.0952 117.524C93.6201 117.923 94.125 118.342 94.61 118.767C100.621 115.617 107.324 114.019 114.11 114.116C117.587 114.093 121.051 114.567 124.394 115.525V81.7142H154.81V103.964C157.439 103.47 160.107 103.216 162.782 103.207C164.773 103.197 166.761 103.364 168.722 103.705C167.813 101.788 167.406 99.671 167.54 97.5533C167.674 95.4357 168.344 93.3868 169.487 91.5992C170.63 89.8116 172.209 88.344 174.076 87.3343C175.942 86.3245 178.034 85.8058 180.156 85.8268C181.781 85.8212 183.392 86.1402 184.892 86.7652C186.393 87.3902 187.754 88.3085 188.895 89.4663C190.036 90.6241 190.934 91.998 191.537 93.5076C192.141 95.0172 192.436 96.632 192.407 98.2573C192.417 99.7175 192.179 101.169 191.703 102.549C196.039 101.409 200.507 100.842 204.99 100.862C208.153 100.862 214.259 100.981 217.069 101.446L220.291 101.971V125.849L215.401 125.477C219.919 130.393 221.72 135.549 221.72 139.595C221.72 147.242 217.826 160.078 191.749 160.078C188.507 160.078 182.275 159.952 179.485 159.487L176.276 158.949V145.588C170.897 151.52 164.067 155.95 156.457 158.444C151.642 160.088 146.591 160.936 141.502 160.955C140.798 160.955 140.107 160.955 139.436 160.869C133.224 169.831 122.268 175.286 110.19 175.286Z" fill="#2A2A2A"/>
<path d="M202.519 120.627L216.471 121.703V105.233C212.667 104.831 208.842 104.654 205.017 104.702C199.117 104.702 186.055 105.778 181.219 113.83C181.219 106.31 188.56 105.599 188.56 98.2573C188.595 97.1348 188.403 96.0169 187.995 94.9707C187.587 93.9244 186.972 92.9715 186.186 92.1691C185.4 91.3667 184.46 90.7314 183.423 90.3014C182.386 89.8714 181.272 89.6555 180.149 89.6668C175.319 89.6668 171.379 93.2478 171.379 98.2573C171.379 105.419 178.687 106.496 178.687 113.651C175.292 108.814 169.207 107.007 162.742 107.007C158.742 107.037 154.766 107.639 150.936 108.794V85.541H128.261V121.178C123.881 118.964 119.03 117.844 114.123 117.916C106.29 117.916 99.3936 119.969 94.0121 123.59C91.9956 121.273 89.5178 119.401 86.7371 118.096C87.3998 117.636 88.0323 117.135 88.6306 116.594C90.2865 115.158 91.6141 113.382 92.5232 111.388C93.4322 109.393 93.9015 107.226 93.8991 105.034C93.8991 88.2185 67.4169 86.9628 56.1423 86.9628C49.8839 86.9894 42.3697 87.3548 39.1475 87.8796L39.7122 163.034C48.3956 162.948 62.6599 162.37 74.9244 158.882C77.8988 158.066 80.8045 157.018 83.6145 155.746C87.4945 165.366 97.6462 171.446 110.19 171.446C122.282 171.446 132.46 165.626 137.522 156.716C138.832 157.003 140.169 157.144 141.509 157.135C146.181 157.108 150.819 156.325 155.241 154.816C168.303 150.424 179.452 140.1 181.059 126.912C183.219 131.204 187.67 135.483 194.646 138.512L180.156 138.333V155.686C182.302 156.045 187.67 156.225 191.782 156.225C199.655 156.225 217.913 155.148 217.913 139.582C217.913 134.047 213.614 126.354 202.519 120.627ZM62.4141 107.353C62.4141 104.848 64.0285 103.964 65.6231 103.964C67.7757 103.964 69.3835 104.861 69.3835 107.366V111.704C69.3835 114.209 67.7757 115.106 65.6231 115.106C64.0219 115.106 62.4075 114.209 62.4075 111.704L62.4141 107.353ZM69.5695 138.346C69.5695 140.851 67.9617 141.741 65.8091 141.741C64.0285 141.741 62.4141 140.851 62.4141 138.346V131.702C62.4141 129.198 64.0285 128.301 65.8091 128.301C67.9617 128.301 69.5695 129.198 69.5695 131.702V138.346ZM115.02 148.903C115.02 151.408 113.412 152.298 111.266 152.298C109.472 152.298 107.864 151.408 107.864 148.903V140.505C107.864 137.994 109.472 137.104 111.266 137.104C113.412 137.104 115.02 137.994 115.02 140.505V148.903ZM158.145 133.337C158.145 135.496 156.942 136.459 155.235 136.659C154.953 136.693 154.669 136.711 154.384 136.712C152.604 136.712 150.989 135.815 150.989 133.317V126.175C150.989 123.67 152.604 122.773 154.384 122.773C154.669 122.772 154.953 122.792 155.235 122.833C156.942 123.052 158.145 124.015 158.145 126.155V133.337Z" fill="white"/>
<g style="mix-blend-mode:multiply" opacity="0.5">
<path d="M137.523 156.716C139.801 152.698 140.989 148.154 140.971 143.535C140.971 133.111 136.108 125.284 128.261 121.178V142.439C128.261 150.258 131.278 155.288 137.523 156.716ZM98.384 136.193C98.384 130.925 96.7097 126.792 94.019 123.617C86.4849 128.686 81.9139 136.838 81.9139 146.757C81.8972 149.835 82.4747 152.887 83.6147 155.746C92.1986 151.8 98.384 145.641 98.384 136.193Z" fill="#BFBFBF"/>
</g>
</svg>
