<svg width="125" height="131" viewBox="0 0 125 131" fill="none" xmlns="http://www.w3.org/2000/svg">
<g clip-path="url(#clip0_1145_53)">
<path d="M96.9883 18.3522C97.2908 17.6072 96.6748 16.876 96.6748 16.876C96.6748 16.876 91.8363 8.64466 74.7169 6.81854C65.5508 5.84166 53.0721 7.69616 44.3256 12.4129C28.4779 20.952 26.1049 35.0189 26.1049 35.0189C26.0156 35.3633 25.8638 36.4119 26.2201 36.8593C26.583 37.3144 27.1111 37.306 27.7664 37.0849C33.3595 35.1955 50.0298 29.6673 60.5496 26.8754C75.5209 22.9063 87.8194 20.491 95.7134 19.146C96.2736 19.051 96.7768 18.8674 96.9883 18.3522Z" fill="#898989"/>
<path d="M114.083 84.6486C105.122 104.773 87.931 118.778 65.4006 119.097C48.9939 119.33 34.515 113.709 24.0583 103.905L17.734 106.61L17.7445 96.8186C10.8541 87.5244 6.859 75.7682 6.859 62.4131C6.859 28.2071 33.0584 1.24344 69.5975 1.24344C75.5615 1.24344 80.9519 2.17156 85.0159 3.09219C78.7544 1.08844 72.5325 0.00268555 65.6068 0.00268555C26.3918 0.00268555 0.001375 31.8004 0 64.5926C0 100.328 28.0335 130.26 64.8296 130.26C99.9748 130.26 118.936 105.481 125 90.5794L114.083 84.6486Z" fill="white"/>
<path d="M104.987 77.5786C110.144 76.9936 113.712 74.9208 115.67 72.9983C117.455 71.2449 117.871 68.8306 117.874 67.0371C117.946 64.4018 117.874 56.0861 117.874 56.0861L104.227 59.0387C104.227 59.0387 104.225 60.0674 104.221 62.2267C104.247 64.3356 105.263 65.4836 107.473 65.0769C108.166 64.9634 109.233 64.6235 109.233 64.6235L109.251 67.2294C109.239 67.1548 109.453 68.6826 106.014 69.3626C101.513 70.0691 99.4677 67.2997 99.4143 62.406C99.5031 57.1613 102.468 54.1367 106.066 53.3083C110.113 52.3802 112.404 53.3446 113.75 53.5498C118.27 54.2267 119.552 47.4498 115.44 45.8602C112.401 44.6358 108.457 44.4146 104.698 45.1652C99.6783 46.1662 89.8071 50.3677 89.7797 64.019C89.8066 74.8664 97.804 78.4016 104.987 77.5786M60.6255 89.2049C60.6255 89.2049 64.8126 87.7687 65.1747 87.6414C68.5402 86.4802 69.7663 84.4789 69.7513 81.0156C69.7088 77.2548 69.7027 69.9216 69.7027 69.9216L79.439 81.1401C81.0206 82.7733 83.0027 82.9128 84.8175 82.3803C86.6936 81.8311 88.2558 80.1157 88.3031 77.6964C88.3185 69.5952 88.2991 49.8236 88.2991 49.8236C88.2991 49.8236 85.7831 50.3573 83.6946 50.9496C81.2917 51.6305 79.443 53.1626 79.443 57.2072C79.443 58.6392 79.4376 66.8563 79.4376 66.8563C79.4376 66.8563 73.958 59.9841 70.3748 56.3996C68.459 54.4858 65.2891 55.6283 65.2891 55.6283L60.6175 57.0421L60.6255 89.2049ZM57.6776 57.7667C57.6776 57.7667 54.7453 58.6267 52.3591 59.4882C49.2608 60.6085 47.4747 62.4012 47.4747 67.0913C47.4747 71.3991 47.4672 93.8196 47.4672 93.8196C47.4672 93.8196 50.1815 92.8914 52.712 91.9368C56.3097 90.5804 57.667 88.7298 57.667 84.9519C57.667 81.7052 57.6776 57.7667 57.6776 57.7667ZM43.1263 64.1267C40.4351 62.9041 38.125 64.2676 37.1438 65.7746L28.8713 79.8446L28.8568 68.5016L19.1047 72.5413L19.0742 104.618L25.9438 101.738C25.9438 101.738 27.2923 101.356 28.1062 100.077C28.8541 98.8992 28.8262 96.9232 28.8262 96.9232L28.8347 86.7517L36.5123 94.8987C38.1982 96.6494 41.2957 97.5484 44.0288 95.3407C46.5002 93.3449 46.1175 89.9423 44.7388 88.4186L37.7447 81.3781C37.7447 81.3781 43.9 71.6772 44.9062 70.0563C46.242 67.9033 45.57 65.2368 43.1263 64.1267Z" fill="white"/>
<path d="M39.3069 101.831C38.9439 102.667 39.7719 103.497 39.7719 103.497C43.3214 107.951 59.0816 113.598 76.1881 109.464C102.312 103.146 107.832 84.6637 108.457 82.0541C108.586 81.522 108.687 80.6664 108.194 80.1529C107.78 79.7241 107.191 79.7196 106.374 79.9086C88.2296 84.174 58.036 93.3905 40.6284 100.849C39.8791 101.17 39.54 101.288 39.3069 101.831Z" fill="#898989"/>
<path d="M23.8131 59.793C23.7893 58.025 22.4148 57.0602 20.0396 58.2524L20.0346 63.9361C20.0346 63.9361 20.8026 63.5961 21.366 63.3337C22.7548 62.6895 23.8458 61.5309 23.8131 59.793ZM19.9928 54.6555C20.3625 54.5123 20.7258 54.3531 21.0816 54.1782C22.3684 53.5516 23.2841 52.3895 23.2948 50.8847C23.308 49.171 21.8968 48.7281 19.9955 49.711L19.9928 54.6555ZM30.0474 58.981C30.1246 63.4666 26.8934 65.8532 22.684 67.5972L14.0615 71.2605L14.0415 47.9002C14.0415 47.9002 19.474 45.6855 21.2464 45.0407C26.2844 43.2075 29.2468 45.4174 29.2468 48.7829C29.2468 51.0286 28.2855 52.9375 26.1993 54.6149C28.2538 54.9575 30.008 56.6451 30.0474 58.981ZM46.4155 39.264C46.4155 37.2965 45.0623 36.7732 43.4254 37.2444C42.102 37.6231 40.5606 38.225 40.5606 38.225L40.55 52.748C40.5341 54.1945 40.3103 56.0054 38.5281 56.454C37.1603 56.7989 36.5134 55.8861 36.512 54.4422L36.4926 42.5552C36.4926 40.5776 35.1168 39.9855 33.4851 40.5269C31.651 41.1394 30.5489 41.5804 30.5489 41.5804C30.5489 41.5804 30.5701 51.8645 30.545 55.9771C30.5215 60.7979 33.8455 63.2049 38.9119 61.7084C43.3813 60.3869 46.3656 57.8859 46.4221 51.4654L46.4155 39.264ZM94.336 45.266C95.6235 44.9882 96.4268 44.0777 96.4268 42.5045C96.4268 41.0871 96.4321 40.0094 96.4321 40.0094L89.4379 41.5375L89.4508 37.4227C89.4508 37.4227 92.8789 36.696 93.8309 36.4884C95.0271 36.2261 95.6536 35.574 95.6536 34.2069C95.6536 32.9317 95.6456 31.8282 95.6456 31.8282L89.4485 33.1432L89.4473 29.8807C89.4473 29.8807 92.6688 29.2082 94.4049 28.8434C95.7574 28.5591 96.2038 27.6327 96.2038 26.358C96.2038 25.5279 96.217 23.8849 96.217 23.8849C93.1258 24.4306 87.2495 25.6046 83.5851 26.444L83.5353 47.739C83.5353 47.739 90.5034 46.0977 94.336 45.266ZM53.9196 44.4059C53.9246 44.4019 57.3796 42.6171 57.3418 39.7859C57.3078 37.3649 55.0779 37.8947 53.921 38.3191L53.9196 44.4059ZM53.9285 47.6909C53.9285 47.6909 53.917 51.7691 53.9113 53.4147C53.8971 54.9575 52.8438 56.0716 51.5101 56.5811C50.3953 56.9636 48.0259 57.779 48.0259 57.779L48.0351 35.8504C48.0351 35.8504 52.9276 34.146 55.8046 33.4775C60.2754 32.4376 63.455 34.4719 63.3975 38.0832C63.3698 41.5216 61.4516 43.608 59.7288 45.0364L63.515 48.6716C64.6785 49.7989 64.7598 51.8366 63.451 53.0681C62.6751 53.7971 60.5999 54.5526 58.975 52.899L53.9285 47.6909ZM103.431 32.6116C103.438 32.6116 106.844 31.3144 106.805 28.5834C106.77 26.2736 104.495 26.6917 103.422 26.9315L103.431 32.6115M97.7148 44.6275L97.724 23.6009C97.724 23.6009 103.863 22.5156 105.449 22.3116C109.85 21.7464 112.803 24.1891 112.743 27.6591C112.719 30.7107 110.802 32.5471 109.173 33.6489C109.173 33.6489 112.167 37.0219 112.969 37.9141C114.047 39.117 113.999 41.1732 112.404 42.1804C110.837 43.1686 109.285 42.6516 108.383 41.6564L103.441 35.8601C103.441 35.8601 103.457 39.4251 103.453 40.9816C103.439 42.531 102.542 43.6605 100.935 43.993L97.7148 44.6275Z" fill="white"/>
<path d="M82.1587 35.8023L73.4496 37.78C73.4496 37.78 73.4391 38.7002 73.4377 40.2023C73.4496 41.3287 74.2396 42.0599 75.3761 41.8259C76.0927 41.6772 76.6663 41.5442 76.6663 41.5442L76.6796 43.9629C76.6888 44.9198 75.253 45.5464 73.7618 45.5119C71.6723 45.4577 70.5137 43.834 70.4837 40.7445C70.5487 36.6823 72.4597 34.2975 75.0626 33.6317C76.3626 33.2969 77.5455 33.4599 78.4643 33.5792C80.7082 33.9417 82.0002 32.8598 82.0462 31.0054C82.093 29.0192 80.3312 27.7908 76.5497 27.9219C68.3502 28.205 64.1577 34.0962 64.1577 41.1269C64.1577 48.3273 68.8615 51.5078 74.603 50.4702C77.8475 49.8158 79.4613 48.7622 80.5797 47.7814C81.6977 46.8008 82.1587 45.3339 82.1587 44.0814V35.8023Z" fill="white"/>
<path d="M47.8463 12.2517C38.2418 16.4914 31.7572 26.5835 31.4008 30.8554C31.2605 32.5537 33.512 32.7974 33.7238 30.9942C35.7506 23.2017 41.9535 15.8548 47.8463 12.2517ZM79.6732 19.4927C84.8536 18.2219 87.6984 18.0302 87.7497 15.716C87.8397 11.841 76.7842 7.34778 66.6612 8.16165C76.9754 8.8509 83.1624 12.8217 83.1963 15.5889C83.2158 17.3392 81.6991 18.8838 79.6732 19.4927ZM82.8833 105.143C90.6563 102.085 98.1261 96.2454 102.259 87.4979C103.451 84.97 100.003 83.6785 99.0291 86.647C96.6103 92.8663 91.6392 100.169 82.8833 105.143Z" fill="white"/>
</g>
<defs>
<clipPath id="clip0_1145_53">
<rect width="125" height="130.263" fill="white"/>
</clipPath>
</defs>
</svg>
