<svg width="14" height="14" viewBox="0 0 14 14" fill="none" xmlns="http://www.w3.org/2000/svg">
<path d="M6.99259 3.42623C6.99259 3.77703 6.9235 4.12441 6.78925 4.44851C6.655 4.77261 6.45823 5.0671 6.21018 5.31516C5.96212 5.56321 5.66763 5.75998 5.34353 5.89423C5.01943 6.02848 4.67205 6.09757 4.32125 6.09757C3.61276 6.09757 2.9333 5.81613 2.43232 5.31516C1.93135 4.81418 1.6499 4.13471 1.6499 3.42623C1.6499 2.71774 1.93135 2.03828 2.43232 1.5373C2.9333 1.03633 3.61276 0.754883 4.32125 0.754883C5.02973 0.754883 5.7092 1.03633 6.21018 1.5373C6.71115 2.03828 6.99259 2.71774 6.99259 3.42623ZM4.72307 5.03664C5.1805 4.94898 5.5094 4.618 5.57482 4.16291C5.65033 3.63619 5.27694 3.14412 4.76445 3.04147C4.57698 3.00397 4.32539 3.0213 4.11154 3.01845C3.7485 3.01354 3.74773 2.54397 4.09887 2.53595C4.23368 2.53285 4.46553 2.53311 4.79444 2.53673C4.80358 2.5369 4.80849 2.54147 4.80918 2.55043C4.8609 3.11206 5.69196 3.01613 5.56758 2.4002C5.50604 2.09508 5.32426 1.89313 5.02225 1.79436C4.92994 1.7641 4.82185 1.76229 4.72204 1.75764C4.71204 1.75729 4.70704 1.75212 4.70704 1.74212C4.70601 1.66533 4.70963 1.59086 4.67886 1.52259C4.48312 1.08689 3.88865 1.27591 3.93597 1.75505C3.93625 1.75828 3.93537 1.76149 3.93351 1.76407C3.93165 1.76664 3.92894 1.7684 3.92589 1.76902C3.55509 1.84745 3.29763 2.04423 3.15352 2.35935C2.91098 2.88994 3.17007 3.5113 3.70248 3.71842C3.93726 3.8097 4.24652 3.80297 4.51208 3.79573C4.61396 3.79315 4.68946 3.80944 4.75074 3.88391C4.84357 3.99665 4.81228 4.17532 4.67938 4.24178C4.63783 4.26246 4.57112 4.27306 4.47924 4.27358C4.27014 4.27462 4.06086 4.27462 3.85142 4.27358C3.84211 4.27358 3.83582 4.26919 3.83254 4.26039C3.82349 4.23609 3.82556 4.19963 3.82039 4.18024C3.69006 3.69903 2.9932 3.83659 3.06793 4.37779C3.12585 4.79797 3.49406 5.07336 3.91684 5.04646C3.92666 5.04577 3.93149 5.05043 3.93132 5.06043C3.92847 5.25591 3.95019 5.3989 4.10249 5.5044C4.32383 5.65748 4.60387 5.54603 4.69024 5.29444C4.71532 5.22178 4.70291 5.13567 4.70756 5.05422C4.70808 5.0444 4.71325 5.03854 4.72307 5.03664Z" fill="black"/>
<path d="M13.2391 7.54034V8.34787C13.2044 8.857 12.8235 9.21978 12.3144 9.21978C12.091 9.21961 11.8665 9.21935 11.6408 9.21901C11.6368 9.21899 11.6329 9.22023 11.6296 9.22254C11.6263 9.22486 11.6238 9.22814 11.6225 9.23194C11.571 9.38114 11.5177 9.53835 11.4567 9.67203C11.1073 10.4374 10.554 11.0133 9.79692 11.3996C9.78881 11.4037 9.78485 11.4103 9.78502 11.4192C9.79157 11.7237 9.78838 12.0277 9.77545 12.3315C9.77114 12.4299 9.75641 12.5123 9.73124 12.5787C9.39328 13.4661 8.10325 13.2274 8.1004 12.2767C8.09971 12.1069 8.09963 11.939 8.10014 11.773C8.10014 11.7695 8.09873 11.7661 8.0962 11.7636C8.09368 11.7612 8.09026 11.7598 8.0867 11.7598H4.95819C4.94957 11.7598 4.94526 11.7642 4.94526 11.773C4.94612 11.9459 4.945 12.1187 4.9419 12.2914C4.93492 12.6811 4.67867 13.0177 4.30503 13.109C3.74444 13.2461 3.25624 12.8184 3.25805 12.257C3.25892 11.9902 3.25874 11.7215 3.25754 11.451C3.25747 11.447 3.2563 11.4431 3.25415 11.4397C3.25201 11.4363 3.24897 11.4336 3.24538 11.4319C2.00603 10.8431 1.22772 9.6348 1.20522 8.26926C1.20057 7.98276 1.20979 7.69755 1.23289 7.41363C1.23306 7.41184 1.23255 7.41003 1.23147 7.40852C1.23038 7.40702 1.22878 7.4059 1.22694 7.40536C0.564471 7.21608 0.15549 6.78624 0 6.11584V6.06956C0.0561109 5.7016 0.484312 5.5568 0.704619 5.86864C0.766418 5.95604 0.779089 6.07783 0.828735 6.1779C0.94837 6.41958 1.13972 6.5755 1.40277 6.64566C1.40689 6.64679 1.41128 6.64635 1.41506 6.64444C1.41884 6.64252 1.42175 6.63927 1.4232 6.63532C1.52887 6.3533 1.66695 6.088 1.83744 5.83942C1.84382 5.82994 1.85106 5.82934 1.85916 5.83761C3.73719 7.72987 6.91638 6.90941 7.64402 4.34279C7.64542 4.33779 7.64841 4.33339 7.65252 4.33027C7.65663 4.32714 7.66163 4.32545 7.66677 4.32546L8.69409 4.32624C8.69772 4.32625 8.70127 4.32515 8.70427 4.32307C8.70728 4.32099 8.70959 4.31804 8.7109 4.3146C8.88828 3.83865 9.20702 3.55025 9.66711 3.44941C9.77571 3.42562 9.94715 3.4139 10.1814 3.41424C10.4741 3.4145 10.7785 3.39847 11.0694 3.42821C11.5516 3.47759 11.9374 3.80081 12.113 4.23677C12.2138 4.48707 12.1642 4.70557 11.9059 4.82115C11.5199 4.99405 11.1318 5.16644 10.7415 5.3383C10.739 5.3394 10.7369 5.34108 10.7352 5.34319C10.7335 5.34531 10.7324 5.3478 10.7319 5.35045C10.7315 5.3531 10.7316 5.35583 10.7324 5.3584C10.7332 5.36097 10.7347 5.3633 10.7366 5.3652C11.1141 5.74789 11.3497 6.15825 11.5555 6.65264C11.5589 6.66109 11.5652 6.66531 11.5744 6.66531C11.8157 6.66669 12.0559 6.66626 12.295 6.66402C12.8181 6.65911 13.1995 7.01181 13.2391 7.54034ZM9.87087 6.50138C9.87087 6.3994 9.83036 6.3016 9.75825 6.22949C9.68614 6.15739 9.58834 6.11688 9.48637 6.11688C9.38439 6.11688 9.28659 6.15739 9.21448 6.22949C9.14237 6.3016 9.10186 6.3994 9.10186 6.50138C9.10186 6.60335 9.14237 6.70115 9.21448 6.77326C9.28659 6.84537 9.38439 6.88588 9.48637 6.88588C9.58834 6.88588 9.68614 6.84537 9.75825 6.77326C9.83036 6.70115 9.87087 6.60335 9.87087 6.50138Z" fill="black"/>
</svg>
