<svg width="66" height="60" viewBox="0 0 66 60" fill="none" xmlns="http://www.w3.org/2000/svg">
<path d="M26.0509 24.5076C25.9976 24.5076 25.9493 24.4797 25.9227 24.4353C25.0721 23.0464 24.2126 21.6588 23.3455 20.2712C23.0282 19.7646 22.8555 19.3876 22.8288 19.1388C22.7412 18.3453 23.4306 18 24.1479 18C28.3678 18.0013 32.5877 18.0025 36.8089 18C37.299 18 37.5998 18.2285 37.8664 18.6576C39.0598 20.5746 40.2493 22.4916 41.4338 24.4073C41.4529 24.4378 41.444 24.4771 41.4135 24.4962C41.4033 24.5025 41.3919 24.5063 41.3792 24.5063H26.0509V24.5076Z" fill="#315FFF"/>
<path d="M14.2434 25.607C14.5786 25.6095 14.854 25.7365 15.0407 26.0208C15.8798 27.2967 16.7025 28.5777 17.5099 29.8663C17.5175 29.879 17.5124 29.8942 17.501 29.9005C17.4972 29.9031 17.4934 29.9043 17.4883 29.9043L6.3393 29.9018C6.29995 29.9018 6.2644 29.8828 6.24409 29.8498C5.7769 29.1096 5.30971 28.3733 4.84379 27.6408C4.59623 27.2523 4.46547 26.9362 4.45024 26.6912C4.40327 25.9244 5.02915 25.5867 5.73627 25.5867C8.57114 25.5867 11.4073 25.5943 14.2434 25.607Z" fill="#315FFF"/>
<path d="M27.3867 26.6659H42.8051C42.8216 26.6659 42.8356 26.6735 42.8445 26.6874L47.4821 34.1815C47.4948 34.2031 47.4884 34.231 47.4669 34.245C47.4592 34.25 47.4503 34.2513 47.4427 34.2513H32.0255C32.009 34.2513 31.9951 34.2437 31.9862 34.2297L27.3473 26.7357C27.3346 26.7141 27.341 26.6862 27.3626 26.6722C27.3702 26.6671 27.3791 26.6646 27.3867 26.6659Z" fill="#315FFF"/>
<path d="M22.1195 37.4886H11.1267C11.0848 37.4886 11.0454 37.467 11.0226 37.4314L7.69512 32.1565C7.67608 32.1273 7.68497 32.0892 7.71416 32.0702C7.72051 32.0664 7.72686 32.0639 7.73321 32.0626C7.75606 32.0562 7.77764 32.06 7.79668 32.0727C7.81827 32.0867 7.84112 32.0931 7.86524 32.0931H18.8454C18.8873 32.0931 18.9267 32.1146 18.9482 32.1502L22.263 37.401C22.2719 37.4162 22.2757 37.4327 22.2731 37.4505C22.2592 37.5279 22.23 37.5482 22.1868 37.5127C22.1678 37.4962 22.1449 37.4886 22.1195 37.4886Z" fill="#315FFF"/>
<path d="M40.0426 46.1531C39.5818 46.1531 39.2454 45.9677 39.0029 45.5767C37.1303 42.5501 35.2552 39.5172 33.3776 36.478C33.3649 36.4564 33.3712 36.4285 33.3928 36.4158C33.3992 36.412 33.4081 36.4094 33.4157 36.4094H48.7732C48.8278 36.4094 48.8786 36.4374 48.9065 36.4843C50.4782 39.0272 52.0295 41.5333 53.5606 44.0038C53.8501 44.4697 54.0011 44.8315 54.0126 45.0879C54.0456 45.8192 53.4438 46.1531 52.7633 46.1531H40.0426Z" fill="#315FFF"/>
<path d="M17.2049 46.1531C16.7999 46.1531 16.4495 46.016 16.2261 45.6644C14.9718 43.6877 13.7187 41.7085 12.4657 39.7242C12.4568 39.7103 12.4606 39.6912 12.4746 39.6823C12.4797 39.6785 12.486 39.6772 12.4924 39.6772L23.6376 39.6798C23.6769 39.6798 23.7087 39.6963 23.7303 39.7306C24.6786 41.2273 25.6231 42.7241 26.5639 44.2184C27.2037 45.234 26.8812 46.1531 25.5901 46.1531H17.2049Z" fill="#315FFF"/>
<path d="M35.2514 43.6749C35.9547 44.7045 36.611 45.7608 37.2191 46.8437C37.3067 46.9986 37.3499 47.1662 37.3499 47.3464C37.3486 49.0996 37.3474 50.8491 37.3486 52.5934C37.3486 52.6302 37.3194 52.6594 37.2839 52.6594H35.2374C35.1854 52.6594 35.1587 52.6328 35.1587 52.5794V43.7029C35.1587 43.5937 35.1892 43.5848 35.2514 43.6749Z" fill="#315FFF"/>
<path d="M14.5732 47.4264C14.5999 49.0831 14.6037 50.7982 14.5847 52.5718C14.5847 52.6302 14.5542 52.6594 14.4958 52.6594H12.4976C12.4455 52.6594 12.4023 52.6162 12.4023 52.5642V43.8336C12.4023 43.8107 12.4214 43.793 12.443 43.793C12.4569 43.793 12.4696 43.8006 12.4772 43.812C13.1425 44.8353 13.7937 45.8763 14.4323 46.9338C14.5237 47.0849 14.5707 47.2499 14.5732 47.4264Z" fill="#315FFF"/>
<path d="M65.5005 58.0309V58.1896C65.3926 58.7393 65.0612 59.0655 64.509 59.1658H1.47676C0.939746 59.0592 0.614746 58.7393 0.500488 58.2061V57.9521C0.661719 57.2209 1.12256 57.0076 1.86143 57.0076H10.1794C10.2149 57.0076 10.2441 56.9784 10.2441 56.9429V54.9142C10.2441 54.8634 10.286 54.8215 10.3381 54.8215L16.6857 54.8164C16.7289 54.8164 16.7505 54.838 16.7505 54.8799V56.9124C16.7505 56.9759 16.7822 57.0076 16.8457 57.0076H32.937C32.9726 57.0076 33.0005 56.9797 33.0005 56.9441V54.8989C33.0005 54.8469 33.0271 54.8202 33.0792 54.8202L39.4561 54.8164C39.4853 54.8164 39.5094 54.8405 39.5094 54.8697L39.5005 56.953C39.5005 56.9835 39.5246 57.0076 39.5551 57.0076C47.7144 57.0076 55.8774 57.0076 64.0443 57.0076C64.8518 57.0076 65.3761 57.1879 65.5005 58.0309Z" fill="#315FFF"/>
<path d="M53.062 18.3334V14.1667" stroke="#315FFF" stroke-width="2" stroke-linecap="round" stroke-linejoin="round"/>
<path d="M50.562 6.66675V1.66675" stroke="#315FFF" stroke-width="2" stroke-linecap="round" stroke-linejoin="round"/>
<path d="M55.562 6.66675V1.66675" stroke="#315FFF" stroke-width="2" stroke-linecap="round" stroke-linejoin="round"/>
<path d="M58.062 6.66675V10.8334C58.062 11.7175 57.7108 12.5653 57.0857 13.1904C56.4606 13.8156 55.6127 14.1667 54.7287 14.1667H51.3953C50.5113 14.1667 49.6634 13.8156 49.0383 13.1904C48.4132 12.5653 48.062 11.7175 48.062 10.8334V6.66675H58.062Z" stroke="#315FFF" stroke-width="2" stroke-linecap="round" stroke-linejoin="round"/>
</svg>
