<svg width="27" height="12" viewBox="0 0 27 12" fill="none" xmlns="http://www.w3.org/2000/svg">
<path d="M7.03264 2.4496C2.47067 1.1725 0.234152 7.8598 4.75165 9.50859C6.61647 10.1853 7.73473 9.46729 9.21833 8.1616C11.7619 5.92509 14.3013 3.68328 16.8364 1.43618C21.1633 -2.40147 28.2922 2.05249 26.4782 7.72319C25.2678 11.5068 20.9346 13.1652 17.5385 11.1097C16.7856 10.6523 15.9819 9.81675 15.2067 9.18773C15.1816 9.16732 15.1612 9.14167 15.147 9.11257C15.1328 9.08346 15.1252 9.05162 15.1245 9.01925C15.1239 8.98687 15.1304 8.95476 15.1435 8.92515C15.1566 8.89553 15.176 8.86914 15.2004 8.84781L16.6268 7.60247C16.6628 7.57076 16.7091 7.55326 16.757 7.55326C16.805 7.55326 16.8513 7.57076 16.8873 7.60247C17.9928 8.57777 18.8283 9.55625 20.3818 9.71191C23.2378 10.0042 25.2393 7.10371 24.1655 4.52091C23.457 2.81811 21.3381 1.90318 19.5717 2.47501C19.0592 2.64021 18.4535 3.0352 17.7546 3.65998C15.2088 5.93674 12.6462 8.19337 10.0665 10.4299C6.74673 13.3113 1.59385 11.9993 0.288159 7.82485C-0.814213 4.29218 1.35241 0.819867 4.97721 0.165433C7.99206 -0.374634 9.53284 1.08037 11.5533 2.9166C11.6402 2.99496 11.6412 3.07332 11.5565 3.15169L10.1523 4.44149C10.0655 4.52197 9.97654 4.52197 9.88547 4.44149C9.01818 3.67905 8.10642 2.7514 7.03264 2.4496Z" fill="#005fff"/>
</svg>
