<svg width="66" height="66" viewBox="0 0 66 66" fill="#005fff" xmlns="http://www.w3.org/2000/svg">
<g id="Icon Instalation">
<path id="Vector" d="M9.09494 13.5181C10.1358 14.5575 12.0926 14.7273 13.3411 13.8824C14.9408 12.7995 15.4111 10.7338 14.379 9.03533C14.289 8.88726 14.0233 8.59547 13.582 8.15997C11.1878 5.79473 9.64996 4.25983 8.96865 3.55529C8.3212 2.88317 8.64638 2.21105 9.2735 1.66958C11.962 -0.653086 15.9076 -0.550018 18.4727 1.96427C19.8489 3.31335 21.2192 4.66969 22.5838 6.03328C23.5255 6.97396 24.1565 7.70367 24.4768 8.22239C25.9996 10.683 25.7383 13.3613 24.1589 15.8117C24.1469 15.83 24.1417 15.8519 24.1441 15.8736C24.1465 15.8953 24.1563 15.9155 24.1719 15.9307L25.4799 17.2401C25.5409 17.3001 25.5292 17.3229 25.445 17.3084C22.5693 16.8206 20.3163 18.8834 18.329 20.7241C17.0689 21.8884 15.9555 23.0047 14.9597 24.3577C14.8914 24.4491 14.7666 24.5333 14.6766 24.5623C12.5291 25.2649 10.5621 25.082 8.77557 24.0136C8.29169 23.7242 7.67666 23.2079 6.93051 22.4647C5.66079 21.2008 4.39445 19.933 3.1315 18.6613C2.27502 17.8 1.69919 17.1182 1.40402 16.6159C-0.04184 14.1597 0.273171 10.9602 2.15888 8.78274C2.8281 8.009 3.47119 7.89577 4.20864 8.63321C5.83644 10.262 7.4652 11.8903 9.09494 13.5181Z" fill="#005fff"/>
<path id="Vector_2" d="M36.1322 20.1449C34.9781 21.3033 33.8327 22.5256 32.6322 23.6333C32.5074 23.7484 32.3907 23.7412 32.2823 23.6115L28.9784 19.6528C28.9416 19.6083 28.9435 19.5657 28.9842 19.525C29.8571 18.6482 30.7291 17.7748 31.6001 16.9048C32.892 15.6172 34.0229 14.7955 35.7184 15.7827C37.2557 16.6783 37.4082 18.8631 36.1322 20.1449Z" fill="#005fff"/>
<path id="Vector_3" d="M18.4536 23.6246C19.9677 22.0016 21.3265 20.6791 23.2035 19.7355C24.735 18.9633 25.8803 19.602 26.9749 20.7111C29.1669 22.9307 30.5184 25.3825 33.2896 27.2087C33.5654 27.3907 33.9245 27.7575 34.3668 28.3091C35.8417 30.1512 33.7121 33.0241 31.4083 32.2416C31.0773 32.1294 30.6795 31.8608 30.215 31.436C29.0982 30.4159 28.0012 29.3736 26.9241 28.3091C26.4726 27.8634 25.7018 27.216 25.0645 27.5905C24.2545 28.0652 24.2443 28.7649 24.7654 29.4661C27.0591 32.5552 28.9288 35.685 26.5728 39.4303C26.4315 39.6558 26.071 40.1527 25.4913 40.9212C24.8569 41.7631 25.5406 42.9274 26.5292 42.6661C27.4031 42.4323 28.6196 40.2795 29.0116 39.4913C29.0182 39.4779 29.028 39.4663 29.04 39.4575C29.0521 39.4486 29.066 39.4427 29.0807 39.4403C29.0955 39.4379 29.1106 39.439 29.1248 39.4436C29.139 39.4482 29.152 39.456 29.1625 39.4666L39.089 49.3931C39.1099 49.414 39.1217 49.4423 39.122 49.4719C39.1222 49.5015 39.1109 49.53 39.0905 49.5513C37.6795 51.0407 35.8155 51.9524 33.7092 52.9351C31.417 54.005 29.1146 54.4695 26.6352 54.7192C24.1848 54.9675 22.8217 55.2999 21.1319 56.9679C19.5961 58.4844 18.0549 60.0057 16.5084 61.5319C16.4923 61.5478 16.4704 61.5566 16.4475 61.5564C16.4247 61.5561 16.4027 61.5468 16.3864 61.5304L4.47117 49.6152C4.43149 49.5755 4.43149 49.5363 4.47117 49.4976C5.69927 48.2917 6.91093 47.0811 8.10614 45.8655C11.1556 42.7657 13.1124 39.0751 13.9767 34.7937C14.2626 33.3754 14.3251 31.2923 14.7257 29.8304C15.3993 27.3728 16.745 25.4551 18.4536 23.6246Z" fill="#005fff"/>
<path id="Vector_4" d="M42.8621 24.2241C41.423 25.6477 39.9926 27.079 38.571 28.5181C38.134 28.9594 37.7203 29.2425 37.1832 29.4617C37.1626 29.4701 37.1403 29.4737 37.1181 29.4722C37.0959 29.4707 37.0744 29.4642 37.0551 29.4531C37.0358 29.4421 37.0192 29.4268 37.0067 29.4084C36.9942 29.39 36.986 29.369 36.9828 29.347C36.6896 27.4381 35.7199 26.3697 34.2406 25.204C34.1971 25.1691 34.1947 25.1324 34.2334 25.0936C35.6028 23.7126 36.9761 22.3403 38.3532 20.9767C39.0123 20.3235 39.5063 19.917 39.8354 19.7573C42.5456 18.4363 44.983 22.1279 42.8621 24.2241Z" fill="#005fff"/>
<path id="Vector_5" d="M43.838 26.3257L39.2069 30.9246C38.1698 31.9545 38.164 33.6301 39.1938 34.6672L39.3227 34.797C40.3526 35.834 42.0282 35.8399 43.0653 34.81L47.6964 30.2111C48.7335 29.1812 48.7393 27.5056 47.7095 26.4686L47.5806 26.3388C46.5507 25.3017 44.8751 25.2958 43.838 26.3257Z" fill="#005fff"/>
<path id="Vector_6" d="M51.8668 33.1009L51.7436 32.9777C50.7129 31.9471 49.0419 31.9471 48.0113 32.9777L43.3572 37.6318C42.3266 38.6624 42.3266 40.3334 43.3572 41.3641L43.4804 41.4873C44.511 42.5179 46.182 42.5179 47.2127 41.4873L51.8668 36.8332C52.8974 35.8025 52.8974 34.1315 51.8668 33.1009Z" fill="#005fff"/>
<path id="Vector_7" d="M57.5979 52.1512C57.2117 51.7535 56.6194 51.1946 56.0809 50.9362C54.2881 50.0754 52.0743 50.9507 51.3688 52.7624C50.7271 54.4129 51.2642 55.6846 52.4343 56.8561C53.8589 58.2845 55.2839 59.711 56.7094 61.1356C57.865 62.2897 57.2451 63.2042 56.062 63.8851C53.4625 65.3783 50.9884 65.3928 48.6396 63.9286C48.1741 63.6383 47.6133 63.1626 46.9572 62.5016C45.6274 61.1612 44.2958 59.8252 42.9622 58.4936C42.2905 57.8219 41.8134 57.2548 41.5308 56.7922C40.0051 54.291 40.2577 51.6853 41.84 49.2C41.8516 49.1819 41.8566 49.1605 41.8542 49.1393C41.8518 49.1181 41.8422 49.0985 41.827 49.0839L29.8899 37.1454C29.8588 37.1147 29.8352 37.0771 29.8211 37.0355C29.807 36.9939 29.8027 36.9495 29.8086 36.9059C29.9461 35.8878 29.8778 34.8842 29.6039 33.8951C29.6011 33.8844 29.6015 33.873 29.6051 33.8626C29.6088 33.8521 29.6156 33.8429 29.6245 33.8363C29.6334 33.8298 29.6442 33.826 29.6553 33.8256C29.6663 33.8252 29.6773 33.8282 29.6867 33.8341C31.9803 35.28 34.7501 34.5237 36.2105 32.2997C36.2482 32.2417 36.2661 32.247 36.2642 32.3157C36.1669 35.2045 37.7725 37.2441 40.6308 37.7333C40.6831 37.743 40.7019 37.773 40.6874 37.8233C40.1358 39.7956 40.4537 41.4447 41.6412 42.7706C43.1422 44.4458 45.4634 44.9278 47.4972 43.9145C48.7616 43.2859 50.0507 41.7776 51.0741 40.7237C51.2434 40.5495 51.4317 40.4286 51.6388 40.3608C54.0413 39.5668 56.663 40.1852 58.4819 41.9402C59.0945 42.5315 60.4596 43.8937 62.5771 46.0267C63.5613 47.0177 64.1981 47.7425 64.4875 48.2013C66.0799 50.7214 65.7678 54.1139 63.734 56.3349C63.2434 56.8721 62.5655 57.1043 61.9964 56.573C61.1341 55.7659 59.6679 54.292 57.5979 52.1512Z" fill="#005fff"/>
</g>
</svg>
