<svg width="61" height="48" viewBox="0 0 61 48" fill="none" xmlns="http://www.w3.org/2000/svg">
<g clip-path="url(#clip0_1099_217)">
<path d="M42.8362 29.8827C42.4174 29.8709 41.9883 29.8725 41.5746 29.8742C41.4224 29.8742 41.2703 29.8742 41.1164 29.8742C39.8701 29.8742 38.6256 29.8742 37.3486 29.8742H35.6647C35.5228 29.8742 35.4082 29.7612 35.4082 29.6211C35.4082 29.076 35.4082 28.5411 35.4116 28.0112C35.4151 26.8148 35.4185 25.6859 35.4048 24.5384C35.3826 22.6737 34.1329 21.1634 32.3652 20.8647C31.5395 20.7247 30.6574 20.755 29.8043 20.7854C29.6539 20.7905 29.5052 20.7955 29.3564 20.8006C28.9461 20.8124 28.8042 21.1752 28.7581 21.4773L28.7256 21.6832C28.6418 22.2282 28.5547 22.7918 28.4931 23.3453C28.1871 26.0723 26.9426 28.1479 24.7971 29.5114C24.4586 29.7257 24.0107 29.8574 23.5953 29.8624C22.055 29.8793 20.4907 29.8793 18.9778 29.8776C18.1487 29.8776 17.3212 29.8776 16.4921 29.8776C15.6749 29.8793 15.451 30.1054 15.451 30.9289C15.4493 35.4429 15.4493 39.957 15.451 44.471C15.451 45.3519 15.6749 45.5679 16.5878 45.5679C17.2802 45.5679 17.9726 45.5679 18.6649 45.5679C19.1402 45.5679 19.6189 45.5679 20.101 45.5679C21.2275 45.5679 22.3695 45.5712 23.4995 45.5864C23.9235 45.5915 24.3919 45.7316 24.7509 45.9594C26.404 47.0107 27.7563 47.4899 29.1359 47.5135C33.5192 47.5861 37.8426 47.603 41.9848 47.5625C43.3029 47.5507 44.3474 46.6158 44.5868 45.2371C44.7218 44.4507 44.503 43.6998 43.9183 42.9421C43.8482 42.8527 43.8482 42.7278 43.9183 42.6367C44.8723 41.3761 44.8723 40.1426 43.9218 38.8669C43.8551 38.7757 43.8551 38.6525 43.9235 38.5631C44.7099 37.5422 44.8278 36.4892 44.2825 35.3451C44.2346 35.2438 44.2585 35.124 44.3423 35.0498L44.6346 34.7916C45.5869 33.9394 45.8877 32.8071 45.4638 31.6849C45.0518 30.5948 44.0705 29.9232 42.8396 29.8877L42.8362 29.8827ZM23.6192 43.7454C23.6192 43.8854 23.5047 43.9985 23.3628 43.9985H17.2785C17.1366 43.9985 17.0221 43.8854 17.0221 43.7454V31.6967C17.0221 31.5567 17.1366 31.4436 17.2785 31.4436H23.3628C23.5047 31.4436 23.6192 31.5567 23.6192 31.6967V43.7454ZM43.067 33.8769C42.8037 33.9225 42.5404 33.9225 42.284 33.9225C42.1524 33.9225 42.0207 33.9225 41.8891 33.9293C41.3814 33.9546 41.0754 34.2111 41.0463 34.6296C41.019 35.0363 41.301 35.34 41.7968 35.4413C42.1165 35.5071 43.0858 35.7045 43.0824 36.7069C43.0824 37.1034 42.9097 37.797 41.778 37.9775C41.1301 38.0822 41.0548 38.4602 41.0548 38.7352C41.0548 39.0002 41.1318 39.3664 41.8019 39.4946C42.6721 39.6617 43.0909 40.0785 43.0824 40.767C43.0772 41.231 42.8465 41.8284 41.7797 42.0326C41.4942 42.0866 41.0207 42.2553 41.0497 42.7801C41.0737 43.2341 41.3164 43.4821 41.7917 43.5344C42.7764 43.6441 43.0328 44.2499 43.0755 44.7376C43.1046 45.0684 42.9986 45.3822 42.7798 45.6219C42.5182 45.9071 42.1199 46.0657 41.6583 46.0707C41.0224 46.0775 40.3813 46.0792 39.7436 46.0792C39.3299 46.0792 38.9196 46.0792 38.5145 46.0792C38.0905 46.0792 37.6665 46.0792 37.2409 46.0792H30.2027C28.5837 46.0792 27.0742 45.6387 25.7117 44.7697C25.3236 44.5216 25.1578 44.2145 25.1595 43.7386C25.1663 41.8773 25.168 40.016 25.168 38.153C25.168 36.0437 25.1715 33.8618 25.1817 31.7153C25.1817 31.4217 25.3407 31.015 25.604 30.8428C28.2333 29.1098 29.6812 26.6731 30.0283 23.396C30.0488 23.2053 30.0796 23.0196 30.1138 22.8222C30.1291 22.7277 30.1462 22.6315 30.1616 22.5303C30.1804 22.4071 30.2881 22.316 30.4146 22.316C30.5907 22.316 30.7617 22.3109 30.9258 22.3058C31.2899 22.294 31.6335 22.2839 31.9806 22.3295C33.0473 22.4662 33.8594 23.4449 33.8679 24.6059C33.8765 25.8766 33.8748 27.1675 33.8731 28.4162C33.8731 29.0018 33.8731 29.589 33.8731 30.1763C33.8731 31.2141 34.0543 31.3963 35.08 31.3963C36.0117 31.3963 36.9434 31.3963 37.8734 31.3963C39.3949 31.3963 40.9164 31.3963 42.4379 31.3997H42.5063C42.749 31.3997 43.0277 31.3997 43.2807 31.4892C43.8312 31.6866 44.1355 32.1506 44.0978 32.7278C44.0551 33.3454 43.6705 33.7757 43.0653 33.8786L43.067 33.8769Z" fill="white"/>
<path d="M23.3831 7.87311C23.5216 7.97605 23.6601 8.07899 23.7985 8.18192C24.3798 8.61392 24.9815 9.0611 25.5987 9.45091C26.1252 9.78504 26.2517 10.185 26.0209 10.7891C25.7474 11.5046 25.5115 12.2505 25.2824 12.9727L25.1816 13.2933C24.9234 14.1067 25.1132 14.7868 25.7149 15.2086C26.2945 15.6136 26.9903 15.5731 27.6741 15.0922C27.8228 14.9876 27.9715 14.8829 28.122 14.78C28.7083 14.3716 29.3169 13.9481 29.8794 13.4958C30.1119 13.3085 30.3256 13.2157 30.541 13.2157C30.7564 13.2157 30.9872 13.3136 31.2368 13.5093C31.8761 14.0088 32.5548 14.4847 33.213 14.9454L33.4438 15.1074C34.1225 15.5832 34.8166 15.6136 35.3978 15.1917C35.9808 14.7699 36.1654 14.1067 35.9192 13.3237L35.8183 12.9997C35.5927 12.2791 35.3602 11.5333 35.0832 10.8212C34.8405 10.1968 34.9721 9.78335 35.5226 9.43573C36.1312 9.05098 36.7244 8.61055 37.2971 8.18361C37.427 8.08742 37.5552 7.99124 37.6852 7.89505C38.3775 7.38374 38.6186 6.77625 38.3963 6.09281C38.1621 5.36888 37.6014 4.99763 36.7261 4.98751C35.8577 4.97738 34.873 4.96726 33.9225 4.99257C33.5139 5.0027 33.119 4.92845 32.948 4.30576C32.7788 3.69658 32.5685 3.08402 32.3634 2.49171C32.283 2.26053 32.2044 2.02765 32.1257 1.79647C31.8129 0.859911 31.3103 0.422852 30.5478 0.422852C30.5427 0.422852 30.5358 0.422852 30.5307 0.422852C29.7614 0.429602 29.2742 0.861598 28.9511 1.82515C28.7972 2.28415 28.6434 2.74315 28.4947 3.20383C27.9356 4.91832 27.8433 4.98582 26.0551 4.98582H25.7354C25.5799 4.98582 25.426 4.98582 25.2722 4.98582C24.9644 4.98582 24.6448 4.98245 24.3336 4.9892C23.4977 5.00607 22.9335 5.37901 22.701 6.0675C22.4668 6.76275 22.6942 7.37193 23.3797 7.87649L23.3831 7.87311ZM24.8396 6.66318C24.8773 6.56531 24.973 6.50118 25.079 6.50118H26.0073C26.703 6.50118 27.3988 6.50118 28.0963 6.50118C28.9511 6.50118 29.0417 6.43369 29.3152 5.61188C29.6161 4.70738 29.9272 3.77252 30.3752 2.8174C30.4196 2.7229 30.5205 2.66552 30.6213 2.67059C30.7256 2.67565 30.8162 2.74484 30.8504 2.84271C30.9222 3.05533 30.9957 3.26627 31.0692 3.47721C31.2282 3.9362 31.394 4.41207 31.5394 4.88626C31.7889 5.70132 31.9411 6.17044 32.1548 6.351C32.3377 6.50793 32.6386 6.50962 33.36 6.50287C33.4814 6.50287 33.613 6.50119 33.7532 6.4995C34.249 6.4995 34.7465 6.4995 35.3038 6.4995H36.1962C36.3056 6.4995 36.4047 6.56868 36.4389 6.67162C36.4748 6.77456 36.4389 6.88931 36.35 6.95343L35.979 7.23187C35.7602 7.39555 35.5807 7.53055 35.3995 7.66218C35.2525 7.76849 35.1055 7.87649 34.9584 7.98449C34.5293 8.29836 34.0849 8.62405 33.6335 8.92779C33.1805 9.23323 33.0643 9.58929 33.2472 10.1158C33.4831 10.8026 33.7122 11.4978 33.9532 12.2353C34.0609 12.5643 34.1721 12.9052 34.29 13.2596C34.3242 13.3642 34.2866 13.4773 34.1977 13.5431C34.1088 13.6072 33.9857 13.6072 33.8968 13.5431L33.0044 12.9052C32.4027 12.4732 31.8454 12.075 31.288 11.6784C30.6265 11.2076 30.476 11.2076 29.8213 11.6784L27.2022 13.5566C27.1578 13.5886 27.1048 13.6055 27.0518 13.6055C26.9988 13.6055 26.9458 13.5886 26.9014 13.5566C26.8107 13.4924 26.7731 13.3777 26.809 13.2731C26.9287 12.9103 27.0415 12.566 27.1492 12.2353C27.3869 11.5046 27.6125 10.8127 27.8502 10.1394C28.0416 9.59435 27.922 9.2366 27.4382 8.90248C26.4141 8.19711 25.6363 7.59299 24.9132 6.94331C24.8345 6.87243 24.8089 6.76275 24.8465 6.66487L24.8396 6.66318Z" fill="white"/>
<path d="M16.8851 19.7934C17.5262 20.2423 18.1228 20.2743 18.6562 19.8913C19.1827 19.515 19.3486 18.9109 19.1246 18.1937L19.0511 17.9591C18.8853 17.4259 18.7143 16.8757 18.5092 16.3526C18.3228 15.8784 18.4288 15.5443 18.8494 15.2659C19.4494 14.8693 20.0358 14.4475 20.5897 14.0155C21.1128 13.6071 21.2906 13.0316 21.0769 12.4377C20.8752 11.8791 20.388 11.5534 19.7366 11.5416C19.0887 11.5298 18.3262 11.5213 17.5758 11.5433C17.121 11.5551 16.856 11.3728 16.7312 10.9459C16.5552 10.3367 16.3398 9.67355 16.0714 8.91755C15.8491 8.28812 15.3516 7.90675 14.7447 7.89662C14.1242 7.88818 13.6113 8.27293 13.3771 8.93274C13.1395 9.60436 12.9292 10.2119 12.7531 10.8379C12.6078 11.3593 12.3086 11.5787 11.7838 11.5467C11.524 11.5315 11.2607 11.5264 10.9974 11.5264C10.7854 11.5264 10.5717 11.5298 10.3632 11.5332C10.2042 11.5348 10.0435 11.5382 9.88451 11.5382C9.03999 11.5433 8.56645 11.842 8.35105 12.5052C8.14932 13.1245 8.36643 13.6577 9.01264 14.1336C9.45712 14.4626 9.9016 14.7799 10.37 15.1157C10.5769 15.2642 10.7871 15.4144 10.9991 15.5679C11.088 15.6321 11.1256 15.7451 11.0914 15.8498C11.006 16.113 10.9205 16.3695 10.8384 16.6226C10.6538 17.1846 10.4777 17.7161 10.3119 18.2527C10.1016 18.9379 10.2709 19.5184 10.7889 19.8862C11.3222 20.2659 11.9018 20.2457 12.5104 19.8255C13.1874 19.3597 13.7241 18.9716 14.2028 18.6037C14.5601 18.3304 14.8901 18.3287 15.2439 18.6037C15.7465 18.9952 16.2816 19.3682 16.7996 19.731L16.8834 19.79L16.8851 19.7934ZM15.7329 17.0867C14.7362 16.3695 14.7174 16.3695 13.7447 17.0732C13.5105 17.2436 13.2745 17.4107 12.9942 17.6098L12.5292 17.9422C12.4847 17.9743 12.4317 17.9912 12.3787 17.9912C12.3257 17.9912 12.2745 17.976 12.2283 17.9439C12.1394 17.8798 12.1001 17.7667 12.1326 17.6621L12.3052 17.1137C12.4078 16.788 12.4933 16.5129 12.5839 16.2396C12.9566 15.1089 12.9514 15.0921 12.0009 14.4086C11.6607 14.164 11.2761 13.8872 10.9188 13.4755C10.8538 13.3995 10.8384 13.2949 10.8812 13.2055C10.9239 13.116 11.0145 13.0586 11.1137 13.0586H11.577C11.9206 13.0586 12.2625 13.0586 12.6061 13.0586C13.5361 13.057 13.6489 12.9776 13.9327 12.1221C14.0421 11.793 14.155 11.464 14.2815 11.0961L14.4832 10.5055C14.5191 10.4025 14.6165 10.3334 14.7259 10.3334C14.8371 10.3334 14.9345 10.4042 14.9687 10.5072L15.5517 12.2402C15.7876 12.9388 15.95 13.0536 16.7107 13.0603C16.9501 13.062 17.1911 13.062 17.4304 13.0637C17.68 13.0637 17.9296 13.0637 18.1792 13.0671C18.2442 13.0671 18.2921 13.084 18.3536 13.1042C18.3844 13.1143 18.4237 13.1278 18.4818 13.1447C18.5741 13.1717 18.6442 13.2493 18.6613 13.3421C18.6784 13.4366 18.6408 13.5328 18.5622 13.5885C18.4015 13.7066 18.2459 13.8231 18.0955 13.9378C17.7604 14.1893 17.4441 14.4272 17.1142 14.6499C16.6492 14.9621 16.5312 15.3148 16.7176 15.8261C16.8492 16.1873 16.9672 16.5534 17.1022 16.977C17.1672 17.1812 17.2373 17.3989 17.3142 17.6351C17.3484 17.7381 17.3108 17.8528 17.2219 17.9169C17.133 17.9811 17.0116 17.9827 16.9227 17.9203C16.7535 17.8022 16.6013 17.6976 16.4611 17.6014C16.1876 17.4124 15.9568 17.2537 15.7294 17.0901L15.7329 17.0867Z" fill="white"/>
<path d="M50.3255 19.8724C50.852 19.4826 50.9905 18.8869 50.7392 18.1039C50.5682 17.574 50.3939 17.0458 50.2212 16.5193L50.0024 15.8528C49.9682 15.7481 50.0058 15.6351 50.0947 15.571C50.3238 15.4056 50.5494 15.2436 50.7717 15.085C51.2709 14.7289 51.741 14.3914 52.206 14.0404C52.7496 13.6287 52.936 13.0735 52.7308 12.4795C52.524 11.8787 52.0504 11.5547 51.3632 11.5429L51.0196 11.5362C50.4657 11.5244 49.8947 11.5142 49.3408 11.5514C48.6484 11.5986 48.4416 11.2004 48.3322 10.8055C48.192 10.2992 48.0142 9.78962 47.8415 9.29519L47.7458 9.02013C47.568 8.50882 47.185 7.89964 46.373 7.89795H46.3696C45.7302 7.89795 45.243 8.29282 44.9968 9.01169C44.8122 9.55 44.6327 10.09 44.4515 10.6384L44.2104 11.3657C44.1762 11.4704 44.0771 11.5395 43.9677 11.5395H43.1984C42.9488 11.5395 42.7009 11.5395 42.453 11.5395C42.1385 11.5395 41.8256 11.5395 41.5128 11.5429C40.711 11.548 40.2186 11.8517 40.0101 12.471C39.7913 13.1207 40.0032 13.6557 40.6785 14.1518C40.7896 14.2345 40.9008 14.3172 41.0119 14.3982C41.4017 14.6884 41.8051 14.9888 42.2171 15.2486C42.6616 15.5288 42.7727 15.8798 42.5778 16.386C42.3231 17.0441 42.1162 17.7158 41.947 18.2844C41.747 18.9561 41.935 19.5484 42.4633 19.9095C42.9796 20.2622 43.5574 20.2402 44.1369 19.8437C44.7216 19.4437 45.2909 19.0489 45.8277 18.627C46.2038 18.3317 46.5405 18.3334 46.9235 18.6321C47.3133 18.9358 47.727 19.2277 48.1287 19.5096L48.4604 19.7441C49.175 20.2504 49.7682 20.2926 50.3306 19.8741L50.3255 19.8724ZM48.0125 17.547C47.65 17.2905 47.3355 17.0678 47.0295 16.8315C46.5662 16.4755 46.1747 16.4738 45.7217 16.8265C45.4157 17.0644 45.0977 17.2854 44.7318 17.5419C44.5558 17.6651 44.366 17.7968 44.1626 17.9419C44.0737 18.006 43.9506 18.006 43.8617 17.9419C43.7728 17.8778 43.7352 17.763 43.7694 17.6601C43.8463 17.4238 43.9164 17.2044 43.9814 16.9986C44.1198 16.5666 44.2378 16.1936 44.3746 15.8207C44.5609 15.3111 44.4412 14.9584 43.9762 14.6395C43.6497 14.415 43.3266 14.1788 43.0138 13.9493C42.8736 13.8463 42.7351 13.7451 42.5949 13.6438C42.5009 13.5747 42.465 13.4515 42.5094 13.3435L42.5624 13.2135C42.6018 13.1174 42.6958 13.0549 42.8001 13.0549C42.9744 13.0549 43.1488 13.0549 43.3232 13.0549C43.7232 13.0549 44.1215 13.0515 44.5216 13.0583C45.055 13.0701 45.3524 12.849 45.5097 12.3546C45.6328 11.9648 45.7627 11.5767 45.908 11.1379C45.9764 10.9321 46.0482 10.7144 46.1268 10.4815C46.161 10.3769 46.2602 10.306 46.3713 10.306C46.4824 10.306 46.5799 10.3769 46.6141 10.4815L46.826 11.1278C46.9577 11.5328 47.0756 11.8905 47.1953 12.2466C47.4193 12.9115 47.6056 13.0482 48.3031 13.0549C48.6723 13.0583 49.0399 13.0583 49.4741 13.0566H50.1733C50.2844 13.0566 50.3819 13.1258 50.4161 13.2304C50.4503 13.335 50.4144 13.4481 50.3238 13.5139C50.1255 13.659 49.9425 13.794 49.7716 13.9206C49.4092 14.1906 49.0963 14.4218 48.7647 14.6395C48.3065 14.9398 48.1885 15.2925 48.368 15.8207C48.4963 16.197 48.6159 16.5733 48.7561 17.0087C48.8211 17.2129 48.8912 17.4289 48.9664 17.6634C49.0006 17.7681 48.963 17.8811 48.8724 17.9453C48.8279 17.9773 48.7749 17.9925 48.7219 17.9925C48.6689 17.9925 48.6159 17.9756 48.5715 17.9436C48.3715 17.8001 48.1868 17.6685 48.0125 17.547Z" fill="white"/>
<path d="M59.5312 24.7037C59.2731 24.7003 59.0133 24.702 58.7534 24.7037C58.2935 24.707 57.8166 24.7104 57.3465 24.6817C57.061 24.6648 56.7054 24.41 56.6011 24.1468C56.437 23.735 56.3002 23.3098 56.1686 22.898C56.0848 22.6365 55.9976 22.3665 55.9053 22.1032C55.6694 21.4316 55.1787 21.0519 54.5428 21.0587C53.9171 21.0654 53.4248 21.4552 53.1923 22.1302C52.9768 22.7546 52.7495 23.4212 52.5512 24.1012C52.4264 24.5298 52.1614 24.7256 51.7118 24.707C51.1476 24.6868 50.5681 24.6935 50.0091 24.6986L49.6774 24.702C48.8927 24.7087 48.3919 25.026 48.1901 25.6453C47.9833 26.2798 48.1901 26.8164 48.8261 27.2855C49.3082 27.6416 49.8826 28.0601 50.4758 28.4634C50.857 28.7216 50.9545 29.0236 50.7938 29.4421C50.5544 30.0665 50.3578 30.6993 50.1424 31.403C49.9339 32.0881 50.1031 32.672 50.6177 33.0449C51.1374 33.4229 51.7323 33.4043 52.3375 32.9909C52.929 32.5859 53.4624 32.218 53.9769 31.813C54.1821 31.651 54.3753 31.57 54.565 31.57C54.7548 31.57 54.9343 31.6477 55.1275 31.8012C55.6044 32.1826 56.1207 32.5404 56.6199 32.8863L56.7635 32.9858C57.3721 33.4077 57.9516 33.4313 58.4867 33.0567C59.0013 32.6956 59.1791 32.1016 58.9722 31.4266C58.8081 30.8883 58.632 30.3584 58.4474 29.7948C58.3636 29.5417 58.2781 29.2835 58.1927 29.0186C58.1585 28.9156 58.1961 28.8026 58.285 28.7368L58.6389 28.4786C58.8765 28.3048 59.1056 28.1377 59.3364 27.9706C59.4526 27.8863 59.5723 27.8019 59.6902 27.7192C59.9142 27.5606 60.145 27.3969 60.3621 27.2298C60.9399 26.786 61.1314 26.2308 60.916 25.6233C60.7023 25.0226 60.2373 24.7121 59.5347 24.702L59.5312 24.7037ZM58.3602 26.7911L57.9636 27.0763C57.6439 27.3058 57.3242 27.5369 57.0062 27.7681C56.4233 28.1917 56.3686 28.3604 56.5891 29.0591L57.1447 30.8124C57.1772 30.917 57.1396 31.0301 57.049 31.0942C57.0045 31.1262 56.9515 31.1414 56.8985 31.1414C56.8455 31.1414 56.7926 31.1262 56.7481 31.0925L56.0814 30.6166C55.7309 30.3669 55.4181 30.1424 55.1052 29.9197C54.724 29.6463 54.3821 29.6497 53.9957 29.9298C53.6641 30.1694 53.3307 30.4074 52.9495 30.6757L52.3631 31.0925C52.2742 31.1566 52.1529 31.1566 52.0622 31.0925C51.9733 31.0284 51.934 30.9153 51.9682 30.8107L52.1323 30.2994C52.2332 29.9821 52.317 29.7172 52.4042 29.4539C52.6651 28.6586 52.4583 28.0184 51.7836 27.5336C51.4109 27.2653 51.0775 27.0121 50.7664 26.6291C50.7049 26.5531 50.6929 26.4485 50.7356 26.3608C50.7784 26.273 50.869 26.2173 50.9664 26.2173H52.3375C53.4025 26.2173 53.4846 26.1566 53.8197 25.139C53.912 24.8572 54.0043 24.5737 54.1137 24.2413L54.312 23.6355C54.3462 23.5309 54.4454 23.46 54.5565 23.46C54.6676 23.46 54.7667 23.5309 54.8009 23.6355L55.0078 24.2717C55.1428 24.6885 55.2625 25.0547 55.3856 25.4208C55.6061 26.0756 55.7942 26.2089 56.5036 26.2156H56.6216C57.1362 26.2207 57.6678 26.2258 58.2542 26.3355C58.3551 26.354 58.4337 26.43 58.4559 26.5278C58.4782 26.6257 58.4388 26.7286 58.3568 26.7877L58.3602 26.7911Z" fill="white"/>
<path d="M11.3563 24.7037C11.1204 24.702 10.8845 24.7037 10.6468 24.7037C10.1853 24.7071 9.7066 24.7121 9.23305 24.6818C8.94756 24.6632 8.59197 24.4101 8.48598 24.1502C8.31845 23.7334 8.17997 23.3014 8.04663 22.8846C7.9697 22.645 7.89277 22.4037 7.81071 22.1657C7.56112 21.4468 7.06877 21.0503 6.43111 21.0587C5.61736 21.0655 5.23785 21.6763 5.06347 22.1877C4.87884 22.726 4.69934 23.2643 4.51813 23.8093L4.27879 24.5265C4.2446 24.6295 4.14545 24.7003 4.03603 24.7003C3.76593 24.7003 3.50095 24.7003 3.23939 24.7003C2.65301 24.7003 2.07861 24.6969 1.50762 24.7037C0.772513 24.7104 0.278454 25.0361 0.0801467 25.6436C-0.123289 26.2646 0.0733086 26.8046 0.663102 27.2467C1.21187 27.6585 1.78285 28.0669 2.36239 28.4634C2.62053 28.6389 2.88893 28.9089 2.68378 29.4422C2.44787 30.0564 2.2564 30.6673 2.03245 31.403C1.82388 32.0882 1.99142 32.672 2.50428 33.0466C3.02398 33.4263 3.61891 33.4078 4.22238 32.996L4.27879 32.9572C4.78994 32.6079 5.3199 32.2451 5.80371 31.8553C5.97808 31.7135 6.19177 31.5802 6.44649 31.5802C6.63112 31.5802 6.83798 31.6511 7.06706 31.8418C7.40384 32.1219 7.77652 32.3818 8.13723 32.6315C8.27229 32.726 8.40905 32.8205 8.54411 32.915C9.23134 33.4044 9.81259 33.45 10.3682 33.0601C11.0537 32.5809 10.9956 31.8435 10.8263 31.3102C10.6605 30.7905 10.4896 30.2707 10.3135 29.7442C10.2331 29.5046 10.1528 29.2616 10.0724 29.0169C10.0382 28.9123 10.0759 28.7992 10.1648 28.7351C10.3802 28.5799 10.5956 28.4263 10.8075 28.2744C11.2862 27.9319 11.7375 27.6079 12.1923 27.2704C12.7975 26.8215 13.0077 26.2866 12.8163 25.6808C12.6111 25.0311 12.1342 24.7121 11.3563 24.7054V24.7037ZM10.2383 26.7996C10.0947 26.9025 9.95106 27.0088 9.80917 27.1134C9.48607 27.3514 9.15099 27.5961 8.8108 27.8239C8.38512 28.1074 8.27058 28.4584 8.4364 28.9629C8.60907 29.4877 8.80396 30.0817 8.89285 30.7533C8.90653 30.8529 8.85695 30.9525 8.76977 31.0031C8.72874 31.0267 8.68429 31.0385 8.63813 31.0385C8.58514 31.0385 8.53214 31.0217 8.48769 30.9913C8.34409 30.8883 8.19878 30.7871 8.05518 30.6858C7.73036 30.458 7.39529 30.2218 7.07219 29.9771C6.63112 29.6413 6.25502 29.643 5.81567 29.9788C5.49941 30.2218 5.16946 30.4547 4.84978 30.6791C4.70618 30.7803 4.56257 30.8816 4.42068 30.9828C4.33179 31.047 4.21212 31.047 4.12151 30.9845L4.00526 30.9035C3.91466 30.8394 3.87534 30.7247 3.90953 30.62L4.07194 30.1239C4.18647 29.7746 4.30101 29.427 4.41384 29.0777C4.64121 28.3672 4.58309 28.1934 3.96081 27.7429L3.90953 27.7057C3.49411 27.4054 3.06501 27.0949 2.64959 26.646C2.58121 26.5718 2.56241 26.4654 2.60344 26.3726C2.64446 26.2815 2.73678 26.2208 2.83764 26.2208H3.3488C3.73345 26.2208 4.11809 26.2241 4.50274 26.2208C5.20878 26.214 5.38487 26.0858 5.61053 25.4158C5.73019 25.0598 5.84986 24.7037 5.98492 24.3021L6.20374 23.6507C6.23793 23.5478 6.33708 23.4769 6.44649 23.4769C6.55761 23.4769 6.65506 23.5478 6.68925 23.6524C6.76105 23.8735 6.83114 24.0793 6.89781 24.2768C7.04142 24.7054 7.16621 25.0766 7.27904 25.4614C7.44145 26.0149 7.76113 26.241 8.34067 26.2275C8.85011 26.2123 9.46213 26.2157 10.1374 26.3524C10.2366 26.3726 10.3152 26.4486 10.3374 26.5464C10.3596 26.6443 10.3203 26.7456 10.2383 26.8046V26.7996Z" fill="white"/>
</g>
<defs>
<clipPath id="clip0_1099_217">
<rect width="61" height="47.1586" fill="white" transform="translate(0 0.420898)"/>
</clipPath>
</defs>
</svg>
