<svg width="9" height="12" viewBox="0 0 9 12" fill="none" xmlns="http://www.w3.org/2000/svg">
<path d="M4.01391 0H4.25118C6.84247 0.0987352 8.63524 2.50189 8.17898 5.00922C7.95977 6.21488 7.24365 7.29304 6.5176 8.2539C6.19326 8.68341 5.87042 9.11398 5.54909 9.54561C5.05542 10.2087 4.6334 10.8667 4.28302 11.5196C4.26225 11.5581 4.21694 11.5831 4.14711 11.5946H4.11347C4.03445 11.5835 3.99269 11.5504 3.95318 11.4773C3.31676 10.2977 2.56542 9.30896 1.72717 8.16966C0.72795 6.81159 -0.205574 5.32559 0.0396033 3.54971C0.154064 2.7202 0.5426 1.91265 1.12845 1.29873C1.90281 0.48741 2.86463 0.0545006 4.01391 0ZM6.29207 4.14461C6.29207 3.56912 6.06415 3.01719 5.65847 2.61026C5.25278 2.20332 4.70255 1.9747 4.12882 1.9747C3.55509 1.9747 3.00486 2.20332 2.59917 2.61026C2.19349 3.01719 1.96557 3.56912 1.96557 4.14461C1.96557 4.72011 2.19349 5.27203 2.59917 5.67897C3.00486 6.08591 3.55509 6.31452 4.12882 6.31452C4.70255 6.31452 5.25278 6.08591 5.65847 5.67897C6.06415 5.27203 6.29207 4.72011 6.29207 4.14461Z" fill="black"/>
</svg>
