<svg width="61" height="58" viewBox="0 0 61 58" fill="none" xmlns="http://www.w3.org/2000/svg">
<path fill-rule="evenodd" clip-rule="evenodd" d="M60.3251 43.9107L44.1141 39.4724C44.3846 38.2303 44.5529 36.9707 44.5929 35.723L60.8268 32.6832L44.5297 33.6032C44.4996 33.2783 44.4623 32.9549 44.4115 32.6348C44.2565 31.6574 44.0208 30.712 43.7168 29.8009L58.6951 21.7905L42.9021 27.7773C42.5334 27.0053 42.1107 26.2661 41.6413 25.5621L54.267 12.7443L40.3652 23.8728C39.5888 22.9595 38.7256 22.1257 37.7912 21.3811L48.0839 6.20532L36.0211 20.1283C34.9827 19.4814 33.8802 18.9353 32.7309 18.5011L38.1779 2.54654L30.6336 17.8497C29.3858 17.5408 28.0989 17.3594 26.791 17.3208L27.1858 0.527653L24.5927 17.3917C23.0545 17.5344 21.504 17.8781 19.9708 18.4423L13.7967 3.0212L17.9849 19.3037C16.0659 20.2679 14.1964 21.5995 12.4392 23.3442C32.7773 10.5283 53.2913 29.081 38.3117 50.8359C39.1753 49.9375 40.0182 48.8368 40.7933 47.5968L56.4167 54.1125L41.8893 45.6598C42.5411 44.3792 43.1102 43.0004 43.5571 41.5731L60.3251 43.9107Z" fill="#FCB040"/>
<path d="M34.4528 28.9756H41.0854C40.5426 27.8595 39.8782 26.87 39.1092 25.9224L39.0975 25.9349C38.5686 25.2856 37.9917 24.6813 37.3698 24.1204L37.2846 24.195L37.3441 24.1005C33.5255 20.6691 27.4486 19.3443 23.0307 20.2867L22.8762 20.3203C22.0728 20.4998 21.2922 20.738 20.5385 21.0311L20.377 21.0953C19.6187 21.3995 18.8881 21.759 18.1906 22.1694L18.0315 22.2635C17.655 22.4907 17.2886 22.7326 16.9327 22.9887L20.1715 28.1541C21.9929 26.6793 24.3082 25.7936 26.8294 25.7936C29.8214 25.7936 32.5228 26.8673 34.4528 28.9756Z" fill="#004A82"/>
<path d="M41.4815 37.5711L28.2089 37.4156L30.4009 42.122L35.5967 42.0568L35.5875 42.4914C33.9845 44.6724 31.4728 46.4059 28.562 46.9111L28.571 46.9222L25.6746 47.4257L25.7063 47.5008L25.7985 47.5902C27.1816 49.0866 28.555 50.6011 29.9229 52.1252C35.1792 50.979 39.4888 47.2952 41.5049 42.4914L41.4815 37.5711Z" fill="#004A82"/>
<path d="M28.5916 51.7323L28.8379 51.9641L28.4517 51.5338L28.5916 51.7323Z" fill="#004A82"/>
<path fill-rule="evenodd" clip-rule="evenodd" d="M14.556 35.8529L22.6017 53.8053H28.9464L28.2534 52.3367C25.5662 49.8177 22.8911 47.2876 20.2418 44.7365L23.9365 44.8711C23.0443 43.7504 21.9593 42.3836 20.8716 41.0129C20.0409 39.9656 19.1963 38.9019 17.937 37.3206C17.7144 37.0002 17.4204 36.6407 17.1853 36.3253L18.8077 35.9846C17.4759 34.4597 16.1366 32.9478 14.8308 31.4016C16.0428 31.3889 17.162 31.4284 18.3859 31.4722C16.9666 29.6787 15.5431 27.8884 14.127 26.0934L0.148987 53.8099C0.375674 53.8239 0.525129 53.8412 0.674918 53.8412C2.44757 53.8426 4.22145 53.8292 5.99411 53.8522C6.37414 53.8572 6.54085 53.7218 6.68908 53.3908C7.66393 51.2073 8.64168 49.0252 9.61921 46.8429L18.4979 46.8273L16.5398 41.9822H11.7975C12.6319 40.1219 13.4663 38.2617 14.3008 36.4015C14.3702 36.2469 14.4436 36.0945 14.556 35.8529Z" fill="#0064AE"/>
<path fill-rule="evenodd" clip-rule="evenodd" d="M23.0228 33.3204L23.0233 33.3211L19.8319 33.6654L19.3156 33.6682L19.6425 34.0584L23.2372 38.2061L21.5674 38.5527L21.7374 38.7831L22.0111 39.1377C24.1784 41.8788 25.8037 43.9546 27.9729 46.6932L24.9476 47.2198L25.5699 47.8247L34.0586 57.301L31.2282 54.6667L21.7039 45.6897L21.0855 45.0946L24.6369 45.2241C22.4856 42.5264 20.3438 39.8171 18.1937 37.1169L17.9227 36.7672L17.7538 36.5402L19.4217 36.1902L15.8544 32.1057L15.5296 31.7212L16.0454 31.7161L19.0816 31.8242L17.091 29.3097L14.3703 25.8739L13.6485 24.9566L12.4424 23.4555C12.6744 23.3692 15.7425 22.2407 15.9198 22.161L23.0228 33.3204Z" fill="#575756"/>
</svg>
