<svg xmlns="http://www.w3.org/2000/svg" width="66" height="62" viewBox="0 0 66 62" fill="none">
  <path d="M47.8117 14.8116C47.8117 18.7399 46.2512 22.5073 43.4735 25.285C40.6958 28.0627 36.9284 29.6232 33.0001 29.6232C29.0718 29.6232 25.3044 28.0627 22.5267 25.285C19.749 22.5073 18.1885 18.7399 18.1885 14.8116C18.1885 10.8833 19.749 7.11594 22.5267 4.33822C25.3044 1.56051 29.0718 0 33.0001 0C36.9284 0 40.6958 1.56051 43.4735 4.33822C46.2512 7.11594 47.8117 10.8833 47.8117 14.8116ZM31.3167 11.6835C31.3218 15.0774 31.3222 18.4713 31.318 21.8651C31.3142 24.5121 35.1228 24.667 35.1253 21.7509C35.1278 17.134 35.1274 12.5172 35.124 7.90029C35.124 7.41449 35.0665 7.04844 34.9514 6.80215C34.5857 6.02139 33.6539 5.57324 32.8135 5.76748C32.5443 5.82926 32.2126 6.01504 31.8182 6.3248C30.8212 7.10768 29.8292 7.89775 28.8424 8.69502C27.8699 9.48213 27.4548 10.6019 28.3777 11.6543C28.9456 12.3026 29.6985 12.4435 30.6362 12.0771C30.8419 11.9958 31.0526 11.7762 31.252 11.6479C31.2951 11.62 31.3167 11.6319 31.3167 11.6835Z" fill="#005fff"/>
  <path d="M65.5 22.5723V22.8554C64.949 28.7486 61.0643 33.5182 54.7369 33.1856C54.2299 33.1593 53.6286 33.0857 52.9329 32.9647C52.8813 32.9562 52.8483 32.977 52.8339 33.0269C52.4336 34.3938 51.8991 35.7048 51.2305 36.9599C51.228 36.9646 51.2269 36.9699 51.2271 36.9752C51.2273 36.9805 51.2289 36.9856 51.2317 36.9901C51.2346 36.9946 51.2385 36.9982 51.2432 37.0007C51.2479 37.0032 51.2531 37.0045 51.2584 37.0043C55.6827 36.8355 59.1041 39.6792 61.0414 43.4155C61.6495 44.591 61.3486 45.3782 60.3343 46.1919C55.2396 50.2836 48.5505 49.9358 44.7851 44.3321C44.763 44.2996 44.7292 44.2772 44.6909 44.2696C44.6526 44.262 44.613 44.2698 44.5807 44.2914C43.3619 45.1014 42.0687 45.7679 40.701 46.2909C40.6138 46.324 40.5939 46.3807 40.6413 46.4611C41.2126 47.4293 41.9739 48.2189 42.9252 48.83C42.936 48.8368 42.9443 48.8469 42.9488 48.8588C42.9534 48.8707 42.9539 48.8838 42.9503 48.896C42.9467 48.9082 42.9392 48.919 42.9289 48.9265C42.9187 48.9341 42.9062 48.9381 42.8935 48.9379H23.0951C23.0828 48.9382 23.0707 48.9343 23.0607 48.9269C23.0508 48.9195 23.0436 48.9091 23.0403 48.8972C23.0369 48.8853 23.0376 48.8726 23.0423 48.8611C23.0469 48.8496 23.0552 48.8401 23.0659 48.8338C24.057 48.2194 24.9021 47.4466 25.6012 46.5157C25.608 46.5066 25.6126 46.4961 25.6147 46.485C25.6167 46.4738 25.6161 46.4623 25.6129 46.4515C25.6097 46.4406 25.604 46.4306 25.5962 46.4224C25.5884 46.4141 25.5788 46.4078 25.5682 46.4039C24.0845 45.8521 22.6868 45.134 21.3749 44.2495C21.3669 44.244 21.3579 44.2401 21.3484 44.2381C21.3389 44.236 21.3291 44.2359 21.3195 44.2376C21.31 44.2394 21.3008 44.2431 21.2927 44.2484C21.2846 44.2537 21.2775 44.2606 21.2721 44.2686C17.2896 50.0043 10.6169 50.3408 5.44736 46.0117C4.50283 45.2207 4.44824 44.3816 5.02588 43.2834C6.96826 39.5878 10.396 36.8621 14.6883 37.0018C14.6989 37.0021 14.7094 36.9996 14.7187 36.9946C14.7281 36.9896 14.7359 36.9823 14.7416 36.9733C14.7472 36.9643 14.7504 36.954 14.7509 36.9435C14.7513 36.9329 14.749 36.9223 14.7441 36.9129C14.0908 35.6891 13.5698 34.4111 13.1813 33.0789C13.1704 33.0412 13.1456 33.0091 13.1119 32.9889C13.0783 32.9686 13.0382 32.9618 12.9998 32.9698C6.08467 34.3675 0.998926 29.5141 0.5 22.8326V22.5571C0.643034 21.6845 1.16185 21.1166 2.05645 20.8534C7.43037 19.2753 12.7751 20.4776 15.2316 25.9594C16.0568 27.8015 16.2815 29.7426 16.6243 31.2597C17.8075 36.4991 21.8104 40.884 26.8263 42.8099C26.8378 42.8142 26.8501 42.816 26.8624 42.815C26.8746 42.8141 26.8865 42.8104 26.8971 42.8043C26.9077 42.7982 26.9167 42.7899 26.9236 42.7798C26.9304 42.7698 26.9349 42.7584 26.9367 42.7464L27.2008 40.9145C27.2076 40.8679 27.2346 40.8447 27.282 40.8447H39.029C39.0549 40.8446 39.08 40.8537 39.0999 40.8704C39.1199 40.8871 39.1334 40.9103 39.1382 40.9361L39.4327 42.6271C39.4395 42.6677 39.4623 42.6804 39.5013 42.6652C45.237 40.3534 48.8399 35.312 49.7603 29.2272C49.9652 27.8705 50.4163 26.5438 51.1137 25.2472C53.7302 20.3811 58.9848 19.2677 63.9677 20.861C64.8754 21.1504 65.3705 21.6417 65.5 22.5723Z" fill="#005fff"/>
  <path d="M27.1282 37.0348C25.9146 37.0348 25.2747 36.0483 25.2607 34.9312C25.2472 33.9155 25.2324 32.8995 25.2163 31.883C25.2162 31.868 25.2197 31.8532 25.2267 31.8399C25.2338 31.8267 25.244 31.8154 25.2564 31.8071C25.2689 31.7987 25.2833 31.7937 25.2982 31.7923C25.3132 31.7909 25.3282 31.7933 25.342 31.7992C30.4692 33.9947 35.5926 33.9883 40.7122 31.7802C40.7182 31.7774 40.7248 31.7762 40.7314 31.7766C40.7379 31.7771 40.7443 31.7792 40.7498 31.7827C40.7554 31.7862 40.76 31.7911 40.7632 31.7969C40.7664 31.8027 40.768 31.8091 40.7681 31.8157C40.7875 32.8305 40.7833 33.847 40.7554 34.8651C40.7122 36.4381 39.9175 37.0335 38.4055 37.0348C34.6468 37.0373 30.8877 37.0373 27.1282 37.0348Z" fill="#005fff"/>
  <path d="M23.3831 61.0619C22.4056 61.0619 21.6248 60.0869 21.6197 59.1246C21.6096 57.0205 21.6045 54.9165 21.6045 52.8125C21.6045 52.795 21.6113 52.7782 21.6235 52.7658C21.6356 52.7534 21.6521 52.7465 21.6692 52.7465H44.3291C44.3463 52.7465 44.3627 52.7533 44.3749 52.7654C44.387 52.7776 44.3938 52.794 44.3938 52.8112C44.393 54.6876 44.3934 56.5707 44.3951 58.4606C44.3951 59.1682 44.3312 59.6663 44.2034 59.9549C43.8061 60.8486 43.0545 61.0619 42.0744 61.0619C35.8444 61.0619 29.614 61.0619 23.3831 61.0619Z" fill="#005fff"/>
</svg>