<svg width="61" height="47" viewBox="0 0 61 47" fill="none" xmlns="http://www.w3.org/2000/svg">
<path d="M33.6943 11.1357C33.6933 11.1353 33.6931 11.134 33.6939 11.1334C34.1756 10.7709 34.302 10.2175 34.0717 9.49039C33.9147 8.99766 33.7547 8.50651 33.5962 8.01693L33.3953 7.3971C33.364 7.29981 33.3985 7.19468 33.4801 7.13505C33.6903 6.98127 33.8975 6.83063 34.1015 6.68313C34.5597 6.35203 34.9912 6.03819 35.418 5.71181C35.917 5.32893 36.088 4.81267 35.8997 4.26032C35.7099 3.70169 35.2752 3.40041 34.6444 3.38942L34.329 3.38315C33.8206 3.37216 33.2965 3.36275 32.7881 3.39727C32.1525 3.44121 31.9627 3.07088 31.8622 2.70369C31.7336 2.23294 31.5704 1.75905 31.4119 1.29928L31.324 1.0435C31.1608 0.568042 30.8093 0.00156918 30.064 0H30.0608C29.474 0 29.0267 0.367187 28.8008 1.03566C28.6313 1.53622 28.4666 2.03836 28.3002 2.54834L28.079 3.22466C28.0476 3.32195 27.9566 3.38628 27.8561 3.38628H27.15C26.9209 3.38628 26.6934 3.38628 26.4658 3.38628C26.1771 3.38628 25.89 3.38628 25.6028 3.38942C24.8669 3.39413 24.4149 3.67658 24.2235 4.25247C24.0226 4.8566 24.2172 5.35403 24.837 5.81537C24.939 5.89226 25.041 5.96915 25.143 6.04447C25.5008 6.31437 25.8711 6.59368 26.2493 6.83534C26.6573 7.09582 26.7593 7.42221 26.5804 7.89296C26.3466 8.50494 26.1567 9.12947 26.0014 9.65829C25.8178 10.2828 25.9904 10.8336 26.4753 11.1694C26.9492 11.4974 27.4795 11.477 28.0115 11.1082C28.5481 10.7363 29.0707 10.3691 29.5634 9.97683C29.9086 9.70222 30.2178 9.70379 30.5692 9.98154C30.927 10.264 31.3068 10.5355 31.6755 10.7975L31.9799 11.0156C32.635 11.4858 33.179 11.5255 33.6946 11.138C33.6955 11.1373 33.6953 11.136 33.6943 11.1357ZM31.5688 8.97256C31.2361 8.73404 30.9474 8.52691 30.6665 8.30722C30.2413 7.97613 29.8819 7.97456 29.4661 8.30252C29.1852 8.52377 28.8934 8.72933 28.5576 8.96785C28.3959 9.0824 28.2218 9.20479 28.035 9.33974C27.9534 9.39937 27.8404 9.39937 27.7589 9.33974C27.6773 9.28012 27.6427 9.17341 27.6741 9.07769C27.7447 8.85801 27.8091 8.65401 27.8687 8.46257C27.9958 8.06086 28.1041 7.71408 28.2296 7.36729C28.4006 6.8934 28.2908 6.56544 27.864 6.26886C27.5643 6.06016 27.2677 5.84048 26.9805 5.62707C26.8519 5.53135 26.7248 5.4372 26.5961 5.34305C26.5098 5.27871 26.4768 5.16416 26.5176 5.06374L26.5663 4.94291C26.6024 4.85347 26.6887 4.79541 26.7844 4.79541C26.9444 4.79541 27.1045 4.79541 27.2646 4.79541C27.6317 4.79541 27.9974 4.79227 28.3646 4.79854C28.8541 4.80953 29.1272 4.60397 29.2715 4.1442C29.3845 3.78172 29.5038 3.42081 29.6372 3.01282C29.6999 2.82138 29.7658 2.61896 29.838 2.40241C29.8694 2.30512 29.9604 2.23922 30.0624 2.23922C30.1644 2.23922 30.2538 2.30512 30.2852 2.40241L30.4798 3.00341C30.6006 3.38001 30.7089 3.71267 30.8187 4.04377C31.0243 4.66203 31.1953 4.78913 31.8356 4.79541C32.1745 4.79854 32.5119 4.79854 32.9105 4.79698H33.5523C33.6543 4.79698 33.7437 4.86131 33.7751 4.9586C33.8065 5.05589 33.7735 5.16102 33.6903 5.22222C33.5083 5.35717 33.3404 5.48271 33.1835 5.60039C32.8508 5.85146 32.5637 6.06644 32.2593 6.26886C31.8387 6.54818 31.7304 6.87614 31.8952 7.36729C32.0129 7.71721 32.1227 8.06714 32.2514 8.47199C32.311 8.66186 32.3754 8.86271 32.4444 9.08083C32.4758 9.17812 32.4413 9.28325 32.3581 9.34288C32.3173 9.3727 32.2687 9.38682 32.22 9.38682C32.1714 9.38682 32.1227 9.37113 32.0819 9.34131C31.8983 9.20793 31.7289 9.08554 31.5688 8.97256Z" fill="#FFFDFB"/>
<path d="M52.0742 14.249C52.0732 14.2486 52.073 14.2473 52.0738 14.2467C52.5555 13.8842 52.6819 13.3308 52.4515 12.6037C52.2946 12.1109 52.1346 11.6198 51.9761 11.1302L51.7752 10.5104C51.7438 10.4131 51.7784 10.308 51.86 10.2483C52.0702 10.0946 52.2774 9.94391 52.4814 9.79641C52.9396 9.46531 53.3711 9.15148 53.7979 8.82509C54.2969 8.44221 54.4679 7.92595 54.2796 7.3736C54.0898 6.81497 53.6551 6.51369 53.0243 6.5027L52.7089 6.49643C52.2005 6.48544 51.6764 6.47603 51.168 6.51055C50.5324 6.55449 50.3426 6.18416 50.2421 5.81697C50.1135 5.34622 49.9503 4.87233 49.7918 4.41256L49.7039 4.15678C49.5407 3.68132 49.1892 3.11485 48.4439 3.11328H48.4407C47.8538 3.11328 47.4066 3.48047 47.1807 4.14894C47.0112 4.64951 46.8464 5.15164 46.6801 5.66163L46.4588 6.33794C46.4275 6.43523 46.3365 6.49957 46.236 6.49957H45.5299C45.3008 6.49957 45.0733 6.49957 44.8457 6.49957C44.557 6.49957 44.2698 6.49957 43.9827 6.5027C43.2467 6.50741 42.7948 6.78986 42.6034 7.36575C42.4025 7.96988 42.5971 8.46731 43.2169 8.92865C43.3189 9.00554 43.4209 9.08243 43.5229 9.15775C43.8807 9.42765 44.251 9.70696 44.6292 9.94862C45.0372 10.2091 45.1392 10.5355 44.9603 11.0062C44.7265 11.6182 44.5366 12.2428 44.3813 12.7716C44.1977 13.3961 44.3703 13.9469 44.8551 14.2827C45.329 14.6106 45.8594 14.5902 46.3914 14.2215C46.928 13.8496 47.4506 13.4824 47.9433 13.0901C48.2885 12.8155 48.5976 12.8171 48.9491 13.0948C49.3069 13.3773 49.6866 13.6487 50.0554 13.9108L50.3598 14.1289C51.0149 14.5991 51.5588 14.6388 52.0745 14.2512C52.0753 14.2506 52.0751 14.2493 52.0742 14.249ZM49.9487 12.0858C49.616 11.8473 49.3273 11.6402 49.0464 11.4205C48.6212 11.0894 48.2618 11.0878 47.846 11.4158C47.5651 11.6371 47.2732 11.8426 46.9374 12.0811C46.7758 12.1957 46.6016 12.3181 46.4149 12.453C46.3333 12.5127 46.2203 12.5127 46.1387 12.453C46.0571 12.3934 46.0226 12.2867 46.054 12.191C46.1246 11.9713 46.189 11.7673 46.2486 11.5759C46.3757 11.1741 46.484 10.8274 46.6095 10.4806C46.7805 10.0067 46.6707 9.67872 46.2439 9.38214C45.9442 9.17344 45.6476 8.95376 45.3604 8.74035C45.2318 8.64463 45.1046 8.55048 44.976 8.45633C44.8897 8.39199 44.8567 8.27744 44.8975 8.17702L44.9462 8.05619C44.9823 7.96675 45.0686 7.90869 45.1643 7.90869C45.3243 7.90869 45.4844 7.90869 45.6444 7.90869C46.0116 7.90869 46.3773 7.90555 46.7444 7.91183C47.234 7.92281 47.5071 7.71725 47.6514 7.25748C47.7644 6.895 47.8837 6.53409 48.017 6.1261C48.0798 5.93466 48.1457 5.73224 48.2179 5.51569C48.2493 5.4184 48.3403 5.3525 48.4423 5.3525C48.5443 5.3525 48.6337 5.4184 48.6651 5.51569L48.8597 6.11669C48.9805 6.49329 49.0888 6.82595 49.1986 7.15705C49.4042 7.77531 49.5752 7.90241 50.2155 7.90869C50.5544 7.91183 50.8918 7.91183 51.2903 7.91026H51.9321C52.0341 7.91026 52.1236 7.97459 52.155 8.07188C52.1863 8.16917 52.1534 8.27431 52.0702 8.3355C51.8882 8.47045 51.7203 8.59599 51.5634 8.71368C51.2307 8.96474 50.9436 9.17972 50.6391 9.38214C50.2186 9.66146 50.1103 9.98942 50.2751 10.4806C50.3928 10.8305 50.5026 11.1804 50.6313 11.5853C50.6909 11.7751 50.7553 11.976 50.8243 12.1941C50.8557 12.2914 50.8212 12.3965 50.738 12.4562C50.6972 12.486 50.6486 12.5001 50.5999 12.5001C50.5513 12.5001 50.5026 12.4844 50.4618 12.4546C50.2782 12.3212 50.1088 12.1988 49.9487 12.0858Z" fill="#FFFDFB"/>
<path d="M15.288 14.249C15.287 14.2486 15.2868 14.2473 15.2877 14.2467C15.7693 13.8842 15.8958 13.3308 15.6654 12.6037C15.5085 12.1109 15.3484 11.6198 15.1899 11.1302L14.9891 10.5104C14.9577 10.4131 14.9922 10.308 15.0738 10.2483C15.2841 10.0946 15.4912 9.94391 15.6952 9.79641C16.1534 9.46531 16.5849 9.15148 17.0118 8.82509C17.5108 8.44221 17.6818 7.92595 17.4935 7.3736C17.3036 6.81497 16.869 6.51369 16.2382 6.5027L15.9227 6.49643C15.4143 6.48544 14.8902 6.47603 14.3818 6.51055C13.7463 6.55449 13.5564 6.18416 13.456 5.81697C13.3273 5.34622 13.1641 4.87233 13.0056 4.41256L12.9178 4.15678C12.7546 3.68132 12.4031 3.11485 11.6577 3.11328H11.6546C11.0677 3.11328 10.6205 3.48047 10.3945 4.14894C10.2251 4.64951 10.0603 5.15164 9.89397 5.66163L9.67271 6.33794C9.64133 6.43523 9.55032 6.49957 9.44989 6.49957H8.74376C8.51466 6.49957 8.28713 6.49957 8.0596 6.49957C7.77087 6.49957 7.48371 6.49957 7.19655 6.5027C6.46061 6.50741 6.00869 6.78986 5.81725 7.36575C5.61639 7.96988 5.81097 8.46731 6.43079 8.92865C6.53279 9.00554 6.63479 9.08243 6.73678 9.15775C7.09456 9.42765 7.46488 9.70696 7.84305 9.94862C8.25104 10.2091 8.35304 10.5355 8.17415 11.0062C7.94034 11.6182 7.75047 12.2428 7.59512 12.7716C7.41153 13.3961 7.58414 13.9469 8.06901 14.2827C8.54291 14.6106 9.07329 14.5902 9.60524 14.2215C10.1419 13.8496 10.6644 13.4824 11.1572 13.0901C11.5024 12.8155 11.8115 12.8171 12.163 13.0948C12.5208 13.3773 12.9005 13.6487 13.2693 13.9108L13.5737 14.1289C14.2288 14.5991 14.7727 14.6388 15.2884 14.2512C15.2892 14.2506 15.289 14.2493 15.288 14.249ZM13.1626 12.0858C12.8299 11.8473 12.5412 11.6402 12.2603 11.4205C11.835 11.0894 11.4757 11.0878 11.0599 11.4158C10.779 11.6371 10.4871 11.8426 10.1513 12.0811C9.98969 12.1957 9.81551 12.3181 9.62878 12.453C9.54718 12.5127 9.4342 12.5127 9.3526 12.453C9.271 12.3934 9.23648 12.2867 9.26787 12.191C9.33848 11.9713 9.40282 11.7673 9.46244 11.5759C9.58955 11.1741 9.69782 10.8274 9.82336 10.4806C9.9944 10.0067 9.88455 9.67872 9.45774 9.38214C9.15802 9.17344 8.86145 8.95376 8.57429 8.74035C8.44562 8.64463 8.31851 8.55048 8.18984 8.45633C8.10354 8.39199 8.07058 8.27744 8.11138 8.17702L8.16003 8.05619C8.19612 7.96675 8.28242 7.90869 8.37814 7.90869C8.5382 7.90869 8.69825 7.90869 8.85831 7.90869C9.2255 7.90869 9.59112 7.90555 9.9583 7.91183C10.4479 7.92281 10.7209 7.71725 10.8653 7.25748C10.9783 6.895 11.0975 6.53409 11.2309 6.1261C11.2937 5.93466 11.3596 5.73224 11.4318 5.51569C11.4631 5.4184 11.5542 5.3525 11.6562 5.3525C11.7582 5.3525 11.8476 5.4184 11.879 5.51569L12.0736 6.11669C12.1944 6.49329 12.3027 6.82595 12.4125 7.15705C12.6181 7.77531 12.7891 7.90241 13.4293 7.90869C13.7683 7.91183 14.1056 7.91183 14.5042 7.91026H15.146C15.248 7.91026 15.3374 7.97459 15.3688 8.07188C15.4002 8.16917 15.3673 8.27431 15.2841 8.3355C15.1021 8.47045 14.9342 8.59599 14.7772 8.71368C14.4446 8.96474 14.1574 9.17972 13.853 9.38214C13.4325 9.66146 13.3242 9.98942 13.489 10.4806C13.6066 10.8305 13.7165 11.1804 13.8452 11.5853C13.9048 11.7751 13.9691 11.976 14.0382 12.1941C14.0695 12.2914 14.035 12.3965 13.9519 12.4562C13.9111 12.486 13.8624 12.5001 13.8138 12.5001C13.7651 12.5001 13.7165 12.4844 13.6757 12.4546C13.4921 12.3212 13.3226 12.1988 13.1626 12.0858Z" fill="#FFFDFB"/>
<path d="M60.114 40.2557C60.114 40.2552 60.1134 40.255 60.113 40.2554C59.746 40.7235 59.2646 40.8394 58.6798 40.8363C54.0601 40.8175 49.4421 40.8269 44.8224 40.8269C44.4021 40.8269 44.0613 41.1676 44.0613 41.588C44.0613 42.1244 44.0613 42.6427 44.0613 43.1603C44.0613 44.0406 44.066 44.9224 44.0598 45.8028C44.0535 46.6878 43.7491 46.9828 42.8531 47C42.7746 47 42.6962 47 42.6177 47C34.2399 47 25.8636 47 17.4858 47C17.3681 47 17.2504 47.0032 17.1327 46.9985C16.3481 46.9687 16.0343 46.6627 16.028 45.8781C16.0186 44.4297 16.0248 42.9814 16.0248 41.533C16.0248 41.143 15.7087 40.8269 15.3187 40.8269H15.2811C10.6222 40.8269 5.96485 40.8269 1.30596 40.8269C0.198122 40.8269 -0.136113 40.4315 0.0474805 39.3393C0.799116 34.8813 3.29097 31.8151 7.45086 30.0827C7.60972 30.0163 7.64074 29.8036 7.51356 29.6876C5.84093 28.1611 5.03925 26.2928 5.30109 24.021C5.49723 22.3153 6.29751 20.9062 7.63445 19.8219C10.2095 17.7317 13.9724 17.9985 16.2665 20.3758C17.8728 22.0397 18.6862 24.9482 17.3982 27.5878C16.7722 28.8707 17.0134 30.4801 18.1589 31.3318C18.8133 31.8198 19.2746 31.8245 20.0043 31.4762C22.2545 30.4013 24.7055 30.0608 27.1613 29.8018C27.4532 29.7705 27.7466 29.7501 28.0385 29.7187C28.1267 29.7107 28.1252 29.5717 28.0454 29.5333C26.5199 28.8004 25.4822 27.6408 24.7918 26.1582C23.968 24.3866 23.7248 22.524 24.0794 20.6033C24.6365 17.5842 27.0075 15.8064 30.2196 15.8864C34.2979 15.9899 36.4948 18.9039 36.115 23.114C35.9456 24.9923 35.3195 26.7168 33.9872 28.0883C33.3221 28.7726 33.5919 29.8692 34.5358 30.0094C34.5999 30.019 34.6639 30.0287 34.7279 30.0388C36.8165 30.3668 38.8925 30.7465 40.7818 31.779C40.9089 31.8481 41.1521 31.8214 41.2855 31.7445C42.8678 30.8279 42.9516 28.575 42.3661 26.8426C42.0379 25.8714 41.9562 24.7989 42.1626 23.6256C42.4451 22.0203 43.272 20.7147 44.5682 19.7199C47.2201 17.6831 50.9877 18.0628 53.2191 20.5453C55.2025 22.7525 55.7226 26.7643 52.6319 29.6568C52.493 29.7868 52.51 30.0343 52.6855 30.1078C56.7591 31.8073 59.2102 34.8185 60.0136 39.1636C60.0486 39.3511 60.114 39.5313 60.114 39.722V40.2557ZM32.6111 31.5953C32.6111 31.5951 32.6113 31.5951 32.6114 31.5953C32.6645 31.8422 32.6817 31.9518 32.7115 32.0583C33.278 34.1704 33.8366 36.2857 34.4203 38.3947C34.549 38.8607 34.4846 39.2373 34.1567 39.581C33.0332 40.7531 31.919 41.9347 30.7845 43.0959C30.3028 43.5902 29.7818 43.5855 29.3001 43.0912C28.1687 41.9269 27.053 40.7469 25.9295 39.5731C25.6204 39.2499 25.5184 38.889 25.6565 38.4449C25.8306 37.8863 25.9656 37.3151 26.1178 36.7486C26.3306 35.9561 26.5438 35.1633 26.7602 34.3587C27.1078 33.0661 26.0107 31.7972 24.6946 32.0411C23.0595 32.3455 21.4338 32.6907 19.9823 33.5663C18.603 34.398 17.8576 35.5576 17.8922 37.2319C17.9424 39.6375 17.9047 42.0446 17.9063 44.4517C17.9063 44.8006 18.2077 45.0747 18.5566 45.0747H41.4989C41.8767 45.0747 42.183 44.7683 42.183 44.3905C42.183 42.043 42.1328 39.6939 42.1987 37.348C42.2505 35.5215 41.4518 34.2395 39.8905 33.4659C38.9035 32.9779 37.8317 32.6185 36.7615 32.3533C35.4246 32.0238 34.0469 31.8496 32.6112 31.5954C32.6111 31.5954 32.6111 31.5954 32.6111 31.5953ZM45.3563 31.7035C43.7862 32.2431 43.7993 34.2255 43.9625 35.8777C44.1281 37.5527 45.3489 38.9235 47.032 38.9235H50.7532C54.6633 38.9235 57.3579 35.285 54.1757 33.013C53.6952 32.6699 53.1727 32.3656 52.6102 32.1164C50.1116 31.008 47.7032 30.8969 45.3563 31.7035ZM16.1072 36.0178C16.3533 34.3263 16.3168 32.2045 14.6911 31.6763C12.3863 30.9275 9.59639 30.9826 7.13546 32.2811C6.8749 32.4186 6.62366 32.5635 6.38171 32.7156C3.02476 34.8269 5.83651 38.9125 9.80217 38.9125H13.1299C14.7252 38.9125 15.8775 37.5964 16.1072 36.0178ZM34.2775 22.593C34.2697 19.3794 32.8621 17.8573 30.1757 17.7647C28.0087 17.6894 26.4693 18.7031 26.0127 20.6065C25.5246 22.6417 25.8416 24.5828 27.0373 26.3151C28.6473 28.6485 31.3902 28.6469 33.0394 26.3418C33.9229 25.1069 34.2634 23.6993 34.2775 22.5946V22.593ZM7.13546 24.7679C7.12604 27.2598 9.13773 29.2997 11.6202 29.3154C14.0869 29.3311 16.1519 27.2896 16.1676 24.8181C16.1833 22.3404 14.1512 20.2926 11.6704 20.2848C9.16754 20.2769 7.14487 22.2776 7.13546 24.7695V24.7679ZM52.9539 24.8181C52.9617 22.3169 50.9579 20.2911 48.4676 20.2832C45.9726 20.2754 43.9358 22.2823 43.9201 24.7664C43.9044 27.2347 45.9428 29.2966 48.4174 29.3138C50.892 29.3311 52.946 27.2959 52.9539 24.8166V24.8181ZM29.9827 41.0923C29.9827 41.0928 29.9833 41.0931 29.9837 41.0927C30.4304 40.6757 30.7833 40.2743 31.2051 39.9638C32.3584 39.1133 32.5687 38.131 32.0681 36.7596C31.5224 35.2637 31.1763 33.6943 30.7751 32.1447C30.6889 31.8117 30.3872 31.5813 30.0433 31.5813C29.6991 31.5813 29.3977 31.812 29.3078 32.1442C28.7485 34.2106 28.1914 36.2652 27.6462 38.3225C27.6132 38.4449 27.6587 38.641 27.7419 38.732C28.4841 39.5323 29.2419 40.3168 29.9825 41.0919C29.9826 41.092 29.9827 41.0922 29.9827 41.0923Z" fill="#FFFDFB"/>
</svg>
