<svg width="52" height="52" viewBox="0 0 52 52" fill="none" xmlns="http://www.w3.org/2000/svg">
<path d="M51.4483 28.0028C51.1459 27.6723 50.6866 27.6327 50.3065 27.9053C50.2239 27.9648 50.1446 28.0259 50.0454 28.1052L49.8703 28.2424C49.8158 28.2853 49.7414 28.2886 49.6819 28.2523C49.6224 28.2159 49.5927 28.1465 49.6059 28.0788C49.6307 27.9582 49.6555 27.8491 49.6803 27.7467C49.7298 27.5335 49.7711 27.3584 49.781 27.1882C49.7976 26.9056 49.781 26.6181 49.7298 26.3554C49.5249 25.2946 48.7285 24.6766 47.7949 24.8501C47.2893 24.9443 46.8646 25.2152 46.5969 25.6118C46.3326 26.0051 46.2433 26.4958 46.3458 26.9965C46.4168 27.3451 46.5523 27.6806 46.6961 28.0358C46.7638 28.2011 46.8299 28.368 46.8927 28.5381C46.9142 28.596 46.901 28.6621 46.858 28.7067C46.6118 28.9694 46.2863 29.0669 45.9426 28.9793C45.4535 28.8554 45.0074 28.3647 44.857 27.7863C43.6095 23.0093 40.6897 19.3559 36.1788 16.927C35.5343 16.58 34.875 16.2858 34.1777 15.9752L34.1612 15.9686C33.8456 15.8281 33.5267 15.686 33.2062 15.5373C33.1599 15.5158 33.1252 15.4712 33.1136 15.4217C33.1037 15.3704 33.1169 15.3176 33.1516 15.2779C36.7885 11.1453 35.8334 5.80488 33.0888 2.87853C30.0749 -0.335321 25.2004 -0.931825 21.5008 1.46246C19.6567 2.65546 18.4009 4.31444 17.7664 6.39312C16.9122 9.20214 17.3566 11.9236 19.0916 14.4815C19.1197 14.5244 19.128 14.5773 19.1115 14.6269C19.0949 14.6748 19.0569 14.7144 19.009 14.731C18.7744 14.8136 18.543 14.8929 18.315 14.9706C17.7499 15.1639 17.2179 15.3473 16.6825 15.5522C16.3421 15.6827 16.0909 15.6414 15.7869 15.4068C14.0503 14.0651 12.1401 13.8354 10.1094 14.7227C9.65001 14.9243 9.44677 15.2382 9.45338 15.7439C9.4666 16.7435 9.47486 17.8126 9.44346 18.8635C9.4352 19.1395 9.28484 19.4617 9.08655 19.6269C6.98639 21.39 5.39186 23.51 4.3426 25.9307C4.2005 26.2579 3.9923 26.3884 3.64035 26.3769C3.21404 26.3587 2.77947 26.362 2.35811 26.3653L1.98798 26.3686C0.842891 26.3735 0.0299262 27.1782 0.0117502 28.3266C-0.00146877 29.1264 -0.00146877 29.9361 0.00183596 30.7622C0.00183596 31.0646 0.00183596 31.367 0.00183596 31.6694V31.7702C0.00183596 32.7137 -0.00146877 33.6886 0.0266215 34.6486C0.0629736 35.9127 0.818105 36.6364 2.09869 36.6364H2.2094C2.33994 36.6364 2.47047 36.6364 2.60101 36.6381C2.91661 36.6414 3.24213 36.6447 3.56269 36.6281C3.95926 36.6067 4.18728 36.7471 4.34591 37.1156C5.40012 39.5479 6.97978 41.6365 9.03698 43.3219C9.33441 43.5648 9.45833 43.8407 9.45338 44.2456C9.43851 45.6435 9.43685 47.0397 9.45007 48.393C9.46825 50.285 10.7224 51.7258 12.4987 51.8977C13.9164 52.0348 15.349 52.0282 16.7568 51.8778C18.1415 51.7291 19.1214 50.8435 19.5873 49.315C19.6468 49.12 19.6766 48.9135 19.703 48.7301C19.7146 48.6491 19.7261 48.5731 19.7377 48.5054C19.7526 48.4194 19.8302 48.3616 19.9129 48.3699C20.4135 48.3946 20.9373 48.4277 21.3983 48.4574C22.4972 48.5285 23.6274 48.5995 24.7262 48.5797C25.8234 48.5599 26.9437 48.4475 28.026 48.3385C28.5101 48.2889 29.0042 48.2393 29.4949 48.198C29.5891 48.198 29.6569 48.2558 29.6701 48.3352L29.6734 48.3517C29.68 48.3831 29.6883 48.4293 29.6916 48.4756C29.8138 50.5725 31.3109 51.9869 33.416 51.9952C34.5231 52.0001 35.4302 51.9985 36.268 51.9952C38.4293 51.9836 39.9445 50.4618 39.9544 48.2938V47.9799C39.9627 46.5258 39.9693 45.037 39.9462 43.5747C39.9396 43.0988 40.08 42.765 40.4336 42.4246C43.3219 39.6437 44.9578 36.3687 45.2949 32.6872C45.3329 32.2742 45.3461 31.866 45.361 31.4331C45.3676 31.2216 45.3742 31.0233 45.3841 30.8217C45.3858 30.7755 45.4089 30.7308 45.4452 30.7011C45.4832 30.6697 45.5295 30.6581 45.5774 30.6664C46.5292 30.8201 47.3174 30.6086 47.9882 30.0203C48.3005 29.746 48.5798 29.7559 48.9284 29.8584C49.8951 30.1442 50.7411 29.903 51.4417 29.1396C51.7556 28.7992 51.7556 28.3415 51.445 27.9995L51.4483 28.0028ZM19.0801 9.06334C19.0817 7.10529 19.8468 5.27116 21.2331 3.89804C22.6508 2.49518 24.5511 1.72353 26.5917 1.72353C26.6182 1.72353 26.643 1.72353 26.6694 1.72353C30.5756 1.75658 33.8539 5.14393 33.8291 9.11787C33.8027 13.1662 30.4797 16.461 26.4215 16.461H26.3934C22.3567 16.4461 19.0751 13.1265 19.0801 9.06169V9.06334ZM39.0332 41.406C39.0338 41.4058 39.0342 41.4065 39.0338 41.4069C38.3882 41.9961 37.6917 42.5408 37.0165 43.0674C36.7174 43.3021 36.4233 43.5317 36.1308 43.7664C35.7872 44.0423 35.6748 44.3265 35.769 44.6834C35.8747 45.0833 36.1292 45.313 36.4712 45.313C36.4762 45.313 36.4795 45.313 36.4845 45.313C36.7158 45.3097 36.9719 45.1775 37.2198 45.0503L37.3503 44.9825C37.4759 44.9197 37.5932 44.8255 37.7419 44.7049C37.8229 44.6405 37.9121 44.5694 38.0145 44.4918C38.0641 44.4538 38.1319 44.4488 38.188 44.4769C38.2442 44.505 38.2789 44.5612 38.2789 44.6239V45.3642C38.2789 45.6517 38.2789 45.9392 38.2789 46.2267V46.2482C38.2789 46.8778 38.2822 47.5288 38.2756 48.1683C38.2607 49.434 37.5321 50.1627 36.2729 50.1709C35.1113 50.1792 34.2141 50.1776 33.3648 50.1709C32.1652 50.1594 31.4431 49.429 31.4299 48.2178C31.4282 48.0245 31.4299 47.8312 31.4299 47.6379C31.4299 47.4842 31.4299 47.3322 31.4299 47.1785C31.4266 46.701 31.3158 46.3722 31.0977 46.2036C30.878 46.0334 30.531 46.0053 30.0667 46.121C28.0557 46.6167 25.949 46.8546 23.8075 46.8249C20.8663 46.7852 18.2968 46.2201 15.9538 45.0998C15.7192 44.9875 15.5275 44.9032 15.349 44.8338C14.8384 44.6355 14.3675 44.809 14.1775 45.2667C13.9891 45.7195 14.1825 46.1805 14.6468 46.3854C15.7704 46.8811 16.6395 47.2363 17.4641 47.5371C17.9499 47.7139 18.0341 48.0047 18.0093 48.3864C17.9432 49.4323 17.274 50.1395 16.3057 50.1875C15.734 50.2156 15.1557 50.2304 14.5873 50.2304C14.0189 50.2304 13.429 50.2156 12.8655 50.1858C11.8658 50.1329 11.19 49.3811 11.1818 48.3153C11.1702 46.8216 11.1636 45.2155 11.1851 43.5879C11.1917 43.0459 11.0132 42.6775 10.5836 42.3519C8.32977 40.6483 6.65922 38.4193 5.61658 35.7276C5.34394 35.0253 5.16548 34.9014 4.41531 34.9014C3.85185 34.9014 3.29005 34.9014 2.70346 34.9014H1.91362C1.82274 34.9014 1.74839 34.8271 1.74839 34.7362V28.2506C1.74839 28.1598 1.82274 28.0854 1.91362 28.0854H2.71668C3.29831 28.0854 3.86507 28.0854 4.43348 28.0854C5.19027 28.0821 5.35881 27.9664 5.63476 27.2559C6.69062 24.5328 8.3876 22.279 10.6761 20.5605C11.0496 20.2796 11.2115 19.9541 11.2032 19.5047C11.1933 19.0387 11.195 18.5694 11.1983 18.115C11.1999 17.6276 11.2016 17.1352 11.19 16.651C11.1801 16.2264 11.3503 16.0231 11.7799 15.9504C13.077 15.7323 14.2006 16.114 15.116 17.0872C15.6415 17.6457 15.7886 17.6804 16.5453 17.4359C17.6772 17.0707 18.9231 16.6923 20.3573 16.2809C20.5655 16.2214 20.8597 16.2743 21.0546 16.4081C24.2388 18.5711 27.5732 18.7578 30.9639 16.9633C31.0449 16.9204 31.3274 16.7865 31.5687 16.8625C37.1586 18.6223 40.7839 21.7767 42.6544 26.509C44.7922 31.9181 43.4727 37.347 39.0327 41.405C39.0322 41.4054 39.0327 41.4062 39.0332 41.406Z" fill="#FFFEFC"/>
<path d="M32.7783 19.6162C32.7783 19.6166 32.7779 19.6169 32.7776 19.6167C32.7001 19.5855 32.6145 19.5591 32.5321 19.5344L32.4479 19.508C30.8242 18.9984 29.0365 18.7667 26.827 18.7741C26.7895 18.7742 26.7514 18.7774 26.7141 18.7743H26.6927C24.6404 18.7743 22.532 18.9908 20.4252 19.4204C20.1295 19.4816 19.8915 19.6286 19.7527 19.8385C19.6354 20.0169 19.5974 20.2284 19.6437 20.4482C19.7461 20.934 20.1873 21.1868 20.7656 21.0877C23.2937 20.663 25.1907 20.473 26.9141 20.473C28.8688 20.473 30.6402 20.7274 32.3272 21.2529C32.5239 21.314 32.7304 21.2942 32.9122 21.1967C33.1138 21.0877 33.2674 20.8927 33.3319 20.663C33.459 20.2155 33.2412 19.8042 32.7791 19.6157C32.7787 19.6156 32.7783 19.6158 32.7783 19.6162Z" fill="#FFFEFC"/>
<path d="M37.6997 26.9115C37.6992 26.912 37.6985 26.9123 37.6977 26.9123C37.5692 26.9125 37.4391 26.9439 37.3106 27.0065C36.8628 27.2246 36.7405 27.6724 36.9669 28.2672C37.1255 28.6836 37.3139 29.2322 37.38 29.794C37.5419 31.1903 37.294 32.6378 36.6215 34.2158C36.0878 35.4683 35.336 36.5307 34.3842 37.3767C33.9744 37.7403 33.9166 38.2409 34.2388 38.6193C34.5709 39.0093 35.0733 39.0159 35.5211 38.6391C35.7326 38.4607 35.8961 38.3087 36.0366 38.1583C37.9765 36.0846 38.9927 33.5895 39.1447 30.5293C39.1513 29.3561 38.9431 28.3614 38.5069 27.4923C38.322 27.1242 38.0284 26.9112 37.7017 26.9106C37.7009 26.9106 37.7002 26.9109 37.6997 26.9115Z" fill="#FFFEFC"/>
<path d="M12.5688 24.6544C12.5692 24.654 12.5691 24.6533 12.5686 24.6531C12.3426 24.5411 12.1099 24.4834 11.8806 24.4834C11.5138 24.4834 11.142 24.6222 10.7454 24.9097C10.0101 25.4401 9.63835 26.5885 9.9176 27.4692C10.063 27.9269 10.3555 28.2838 10.7438 28.4739C11.1337 28.6639 11.5964 28.6771 12.0492 28.5086C12.9348 28.1797 13.4867 27.2462 13.4917 26.0713C13.4785 25.779 13.3612 25.0475 12.5691 24.6558C12.5685 24.6555 12.5684 24.6548 12.5688 24.6544Z" fill="#FFFEFC"/>
<path d="M27.317 14.578C27.3179 14.5784 27.3188 14.5779 27.319 14.577C27.3278 14.5199 27.3672 14.4696 27.4211 14.4483C27.6409 14.3624 27.8673 14.2831 28.0656 14.2137C28.5216 14.0534 28.9512 13.903 29.3362 13.68C30.3425 13.095 30.8961 11.9119 30.6829 10.8065C30.4582 9.63662 29.6684 8.87819 28.401 8.61546C28.1763 8.56919 27.9515 8.51632 27.7235 8.46344C27.6112 8.437 27.5038 8.41222 27.3947 8.38743C27.3187 8.37091 27.2658 8.30316 27.2658 8.2255V5.76347C27.2658 5.71886 27.284 5.67425 27.317 5.64285C27.3484 5.61311 27.393 5.59824 27.4377 5.59824C28.3498 5.65111 28.8521 6.04603 28.976 6.80612C29.0719 7.38775 29.4486 7.72483 29.946 7.66535C30.174 7.63726 30.3657 7.5282 30.5012 7.35305C30.6614 7.14485 30.7259 6.85899 30.6813 6.55C30.5325 5.49083 29.9592 4.71257 28.976 4.24164C28.6538 4.08632 28.3035 3.98718 27.9334 3.87978C27.7582 3.8302 27.5847 3.78063 27.4112 3.7228C27.355 3.70462 27.3121 3.65671 27.3005 3.59887C27.1452 2.85366 26.9188 2.59423 26.438 2.59919C26.1719 2.60415 25.9951 2.67024 25.9456 2.72973C25.7903 2.91479 25.6696 3.14612 25.5424 3.39233C25.4846 3.50469 25.4234 3.62201 25.3573 3.73932C25.3259 3.7955 25.2698 3.82525 25.2103 3.82359C25.1921 3.82359 25.1756 3.82359 25.1574 3.82359C24.2932 3.82359 23.505 4.11111 22.8738 4.65969C21.9733 5.44126 21.6445 6.36659 21.8956 7.40923C22.16 8.50971 22.8771 9.19709 24.0239 9.45156C24.3312 9.5193 24.6369 9.58705 24.9409 9.6548L25.4102 9.7589C25.4862 9.77542 25.5407 9.84317 25.5407 9.92083V12.3895C25.5407 12.4787 25.4697 12.5514 25.3805 12.5547C24.2816 12.5844 23.738 12.1879 23.5149 11.1832C23.4108 10.7173 23.1085 10.4496 22.6838 10.4496C22.6491 10.4496 22.6144 10.4512 22.5781 10.4545C22.1038 10.5008 21.8047 10.8759 21.8147 11.408C21.8378 12.5993 22.7582 13.7064 24.052 14.1013C24.3428 14.1905 24.6551 14.2418 24.9591 14.2913C25.1078 14.3161 25.2532 14.3393 25.3953 14.3674C25.4664 14.3806 25.5193 14.4384 25.5275 14.5111C25.6184 15.2679 25.9076 15.6364 26.4165 15.6364C26.4215 15.6364 26.4264 15.6364 26.4314 15.6364C26.9366 15.6298 27.2092 15.3031 27.3151 14.5791C27.3152 14.5782 27.3162 14.5776 27.317 14.578ZM27.3187 10.3818C27.3187 10.3356 27.3385 10.291 27.3716 10.2596C27.4063 10.2282 27.4509 10.2133 27.4971 10.2166C28.2787 10.2844 28.9991 10.4562 28.9958 11.2592C28.9925 11.9549 28.434 12.4324 27.5021 12.5398C27.4988 12.5398 27.4872 12.5398 27.4839 12.5398C27.4426 12.5398 27.4046 12.525 27.3732 12.4985C27.3385 12.4671 27.3187 12.4225 27.3187 12.3746V10.3802V10.3818ZM25.5391 7.80415C25.5391 7.85372 25.5176 7.89998 25.4796 7.93138C25.4499 7.95617 25.4119 7.96938 25.3739 7.96938C25.3689 7.96938 25.3474 7.96773 25.3425 7.96608C25.2318 7.9446 25.1227 7.92642 25.0153 7.90659C24.774 7.86528 24.5444 7.82563 24.3147 7.76119C23.9099 7.65048 23.6223 7.36627 23.543 7.00275C23.4687 6.65906 23.5976 6.32197 23.8966 6.07412C24.1511 5.86427 24.4535 5.74034 24.8038 5.59824C24.9641 5.53214 25.131 5.4644 25.3045 5.38343C25.3557 5.3603 25.4152 5.3636 25.4631 5.39334C25.511 5.42474 25.5391 5.47596 25.5391 5.53214V7.8025V7.80415Z" fill="#FFFEFC"/>
</svg>
