<svg width="189" height="47" viewBox="0 0 189 47" fill="none" xmlns="http://www.w3.org/2000/svg">
<g id="pull">
<path id="Rectangle 7" d="M6.96485 47C61.7292 47 58.7849 2.0752e-05 91.2291 0C123.673 -2.0752e-05 120.729 47 180.477 47C240.224 47 -47.7995 47 6.96485 47Z" fill="white"/>
<g id="Group 10">
<path id="Vector" d="M93.6319 30.6842C95.2512 28.665 96.754 26.7942 98.2525 24.9198C98.9108 24.0966 99.6785 23.7803 100.577 24.1584C101.892 24.7113 102.415 26.6846 101.633 28.1156C101.496 28.3682 101.319 28.5926 101.144 28.8099C98.5013 32.0993 95.8555 35.3869 93.2082 38.6728C92.1035 40.0437 90.9092 40.0525 89.8145 38.694C87.116 35.3463 84.4218 31.995 81.7262 28.6456C81.0665 27.8259 80.8191 26.8631 81.139 25.7519C81.4361 24.7255 82.056 24.1478 82.9233 24.0224C83.6413 23.9181 84.2341 24.2697 84.7374 24.8986C86.1137 26.6175 87.4942 28.3276 88.8747 30.0412C88.9526 30.1379 89.8469 31.2083 90.5799 32.0851C91.0818 32.6854 92.0062 32.6789 92.5003 32.0721L93.6304 30.6842H93.6319Z" fill="#FCB040"/>
</g>
</g>
</svg>
