<svg width="9" height="13" viewBox="0 0 9 13" fill="none" xmlns="http://www.w3.org/2000/svg">
<path d="M4.78369 5.00354C4.77612 5.10006 4.82104 5.14832 4.91846 5.14832L8.03746 5.1288C8.07617 5.12883 8.11413 5.13944 8.14726 5.15949C8.1804 5.17954 8.20744 5.20826 8.22548 5.24257C8.24352 5.27688 8.25188 5.31547 8.24965 5.35419C8.24741 5.3929 8.23468 5.43027 8.21281 5.46227L3.45881 12.2895C3.4341 12.3253 3.39835 12.3519 3.35707 12.3653C3.31578 12.3787 3.27124 12.3782 3.23029 12.3638C3.18935 12.3494 3.15426 12.3219 3.13042 12.2855C3.10658 12.2492 3.09532 12.206 3.09836 12.1626L3.46043 7.29394C3.46476 7.22887 3.43391 7.19633 3.36788 7.19633L0.172566 7.18983C0.145696 7.18952 0.119232 7.18308 0.0952565 7.17102C0.0712807 7.15896 0.0504472 7.1416 0.0343949 7.12031C0.0183427 7.09903 0.00750974 7.07439 0.00274831 7.04835C-0.00201312 7.02231 -0.000573174 6.99556 0.00695506 6.97022C0.0372629 6.86286 0.100585 6.74032 0.196921 6.60259C1.68201 4.49439 3.20065 2.32871 4.75284 0.105558C4.77126 0.078872 4.7948 0.0561288 4.82211 0.0386417C4.84942 0.0211546 4.87995 0.00926987 4.91196 0.00367388C4.94396 -0.00192211 4.97679 -0.00111853 5.00856 0.00603812C5.04033 0.0131948 5.07041 0.026563 5.09706 0.0453705C5.17337 0.0974248 4.81617 4.58548 4.78369 5.00354Z" fill="black"/>
</svg>
