<svg width="13" height="13" viewBox="0 0 13 13" fill="none" xmlns="http://www.w3.org/2000/svg">
<path d="M8.26422 6.69299C8.71968 6.6935 9.12697 6.97886 9.26094 7.41434C9.42745 7.95509 9.12082 8.54708 8.56854 8.70129C8.47786 8.72657 8.33236 8.73929 8.13204 8.73946C7.45783 8.74031 6.78361 8.7404 6.1094 8.73971C6.01769 8.73954 5.95331 8.75013 5.91625 8.77148C5.80123 8.83757 5.79816 9.04967 5.91907 9.12088C5.95117 9.13984 6.00198 9.1494 6.07148 9.14957C6.80445 9.15008 7.53749 9.14949 8.27063 9.14778C9.4441 9.14522 10.1158 7.85801 9.45358 6.89049C9.45119 6.88702 9.45012 6.88282 9.45054 6.8786C9.45096 6.87439 9.45285 6.87043 9.45588 6.86743C9.86574 6.45467 10.2778 6.04311 10.6921 5.63274C10.7862 5.53967 10.8696 5.47255 10.9424 5.43139C11.6694 5.02051 12.5257 5.61378 12.3569 6.44759C12.3167 6.64688 12.2122 6.8203 12.0795 7.01088C11.5272 7.80515 10.9756 8.59994 10.4247 9.39523C10.0809 9.89141 9.61829 10.2595 9.01708 10.3538C8.91239 10.3702 8.74196 10.3785 8.50578 10.3786C7.40941 10.3797 6.31296 10.3798 5.21642 10.3791C5.17108 10.3791 5.1201 10.3868 5.07092 10.3858C5.06289 10.3856 5.05606 10.3827 5.05042 10.3771L2.23317 7.55984C2.22616 7.55301 2.22599 7.54609 2.23265 7.53909C2.63559 7.11258 3.08618 6.7952 3.67535 6.71246C3.77474 6.69862 3.94509 6.69162 4.18639 6.69145C5.54558 6.69043 6.90486 6.69094 8.26422 6.69299Z" fill="black"/>
<path d="M4.94097 10.844L1.67116 7.57423C1.58822 7.4913 1.45377 7.4913 1.37084 7.57423L0.150361 8.79471C0.0674304 8.87764 0.0674305 9.0121 0.150361 9.09503L3.42018 12.3648C3.50311 12.4478 3.63757 12.4478 3.7205 12.3648L4.94097 11.1444C5.0239 11.0614 5.0239 10.927 4.94097 10.844Z" fill="black"/>
<path d="M9.42673 3.00401C9.42673 3.38078 9.35252 3.75385 9.20834 4.10193C9.06416 4.45002 8.85283 4.76629 8.58642 5.03271C8.32001 5.29912 8.00373 5.51045 7.65564 5.65463C7.30756 5.79881 6.93449 5.87302 6.55772 5.87302C5.79682 5.87302 5.06708 5.57075 4.52903 5.03271C3.99099 4.49466 3.68872 3.76492 3.68872 3.00401C3.68872 2.24311 3.99099 1.51336 4.52903 0.975322C5.06708 0.437279 5.79682 0.13501 6.55772 0.13501C7.31863 0.13501 8.04837 0.437279 8.58642 0.975322C9.12446 1.51336 9.42673 2.24311 9.42673 3.00401ZM6.98928 4.73358C7.48055 4.63944 7.83379 4.28397 7.90405 3.7952C7.98515 3.22951 7.58413 2.70103 7.03372 2.59078C6.83238 2.55052 6.56217 2.56912 6.3325 2.56607C5.9426 2.56079 5.94177 2.05647 6.3189 2.04786C6.46367 2.04453 6.71269 2.04481 7.06593 2.0487C7.07574 2.04888 7.08102 2.05379 7.08176 2.06342C7.1373 2.6666 8.02986 2.56357 7.89628 1.90207C7.83018 1.57437 7.63496 1.35748 7.31059 1.2514C7.21145 1.2189 7.09537 1.21696 6.98817 1.21196C6.97743 1.21159 6.97207 1.20604 6.97207 1.1953C6.97095 1.11282 6.97484 1.03284 6.9418 0.959526C6.73157 0.491587 6.09312 0.694592 6.14394 1.20919C6.14424 1.21265 6.1433 1.2161 6.1413 1.21886C6.1393 1.22163 6.13639 1.22352 6.13311 1.22418C5.73488 1.30842 5.45837 1.51976 5.30359 1.85819C5.0431 2.42805 5.32137 3.09538 5.89317 3.31782C6.14533 3.41585 6.47747 3.40863 6.76267 3.40086C6.87209 3.39808 6.95318 3.41558 7.019 3.49556C7.1187 3.61664 7.08509 3.80853 6.94235 3.87991C6.89773 3.90212 6.82608 3.91351 6.7274 3.91406C6.50283 3.91517 6.27807 3.91517 6.05313 3.91406C6.04313 3.91406 6.03637 3.90934 6.03286 3.8999C6.02314 3.8738 6.02536 3.83464 6.0198 3.81381C5.87984 3.297 5.13142 3.44474 5.21167 4.02598C5.27388 4.47726 5.66934 4.77302 6.12339 4.74413C6.13394 4.74339 6.13913 4.74839 6.13894 4.75913C6.13589 4.96908 6.15921 5.12265 6.32278 5.23596C6.5605 5.40036 6.86126 5.28067 6.95401 5.01046C6.98095 4.93242 6.96762 4.83994 6.97262 4.75246C6.97318 4.74191 6.97873 4.73562 6.98928 4.73358Z" fill="black"/>
</svg>
