<svg xmlns="http://www.w3.org/2000/svg" width="66" height="65" viewBox="0 0 66 65" fill="#005fff">
  <path d="M26.0504 30.3418C25.9971 30.3418 25.9489 30.3139 25.9222 30.2694C25.0716 28.8806 24.2121 27.493 23.345 26.1054C23.0277 25.5988 22.855 25.2218 22.8283 24.9729C22.7408 24.1795 23.4301 23.8342 24.1474 23.8342C28.3673 23.8354 32.5872 23.8367 36.8084 23.8342C37.2985 23.8342 37.5993 24.0627 37.8659 24.4918C39.0593 26.4088 40.2489 28.3258 41.4333 30.2415C41.4524 30.272 41.4435 30.3113 41.413 30.3304C41.4029 30.3367 41.3914 30.3405 41.3787 30.3405H26.0504V30.3418Z" fill="#005fff"/>
  <path d="M14.2429 31.4412C14.5781 31.4438 14.8536 31.5707 15.0402 31.8551C15.8793 33.131 16.702 34.4119 17.5094 35.7005C17.517 35.7132 17.512 35.7284 17.5005 35.7348C17.4967 35.7373 17.4929 35.7386 17.4878 35.7386L6.33881 35.736C6.29946 35.736 6.26391 35.717 6.2436 35.684C5.77641 34.9438 5.30922 34.2075 4.84331 33.475C4.59575 33.0865 4.46499 32.7704 4.44975 32.5254C4.40278 31.7586 5.02866 31.4209 5.73579 31.4209C8.57065 31.4209 11.4068 31.4285 14.2429 31.4412Z" fill="#005fff"/>
  <path d="M27.3862 32.5H42.8046C42.8211 32.5 42.8351 32.5076 42.844 32.5215L47.4816 40.0156C47.4943 40.0372 47.4879 40.0651 47.4664 40.0791C47.4587 40.0841 47.4499 40.0854 47.4422 40.0854H32.0251C32.0085 40.0854 31.9946 40.0778 31.9857 40.0638L27.3468 32.5698C27.3341 32.5482 27.3405 32.5203 27.3621 32.5063C27.3697 32.5012 27.3786 32.4987 27.3862 32.5Z" fill="#005fff"/>
  <path d="M22.119 43.3227H11.1262C11.0843 43.3227 11.0449 43.3011 11.0221 43.2656L7.69463 37.9907C7.67559 37.9615 7.68448 37.9234 7.71368 37.9044C7.72002 37.9006 7.72637 37.898 7.73272 37.8968C7.75557 37.8904 7.77715 37.8942 7.7962 37.9069C7.81778 37.9209 7.84063 37.9272 7.86475 37.9272H18.8449C18.8868 37.9272 18.9262 37.9488 18.9478 37.9844L22.2625 43.2351C22.2714 43.2504 22.2752 43.2669 22.2727 43.2846C22.2587 43.3621 22.2295 43.3824 22.1863 43.3469C22.1673 43.3303 22.1444 43.3227 22.119 43.3227Z" fill="#005fff"/>
  <path d="M40.0421 51.9873C39.5813 51.9873 39.2449 51.802 39.0024 51.4109C37.1298 48.3844 35.2547 45.3515 33.3771 42.3122C33.3644 42.2906 33.3708 42.2627 33.3923 42.25C33.3987 42.2462 33.4076 42.2437 33.4152 42.2437H48.7727C48.8273 42.2437 48.8781 42.2716 48.906 42.3186C50.4777 44.8614 52.0291 47.3675 53.5601 49.838C53.8496 50.3039 54.0006 50.6657 54.0121 50.9222C54.0451 51.6534 53.4433 51.9873 52.7628 51.9873H40.0421Z" fill="#005fff"/>
  <path d="M17.2044 51.9873C16.7994 51.9873 16.449 51.8502 16.2256 51.4985C14.9713 49.5219 13.7183 47.5427 12.4652 45.5584C12.4563 45.5444 12.4602 45.5254 12.4741 45.5165C12.4792 45.5127 12.4855 45.5114 12.4919 45.5114L23.6371 45.514C23.6765 45.514 23.7082 45.5305 23.7298 45.5647C24.6781 47.0615 25.6227 48.5583 26.5634 50.0525C27.2032 51.0682 26.8808 51.9873 25.5896 51.9873H17.2044Z" fill="#005fff"/>
  <path d="M35.2509 49.5092C35.9542 50.5388 36.6105 51.595 37.2187 52.6779C37.3063 52.8328 37.3494 53.0004 37.3494 53.1807C37.3481 54.9339 37.3469 56.6833 37.3481 58.4276C37.3481 58.4644 37.3189 58.4936 37.2834 58.4936H35.2369C35.1849 58.4936 35.1582 58.467 35.1582 58.4137V49.5371C35.1582 49.4279 35.1887 49.419 35.2509 49.5092Z" fill="#005fff"/>
  <path d="M14.5728 53.2607C14.5994 54.9174 14.6032 56.6325 14.5842 58.4061C14.5842 58.4645 14.5537 58.4937 14.4953 58.4937H12.4971C12.445 58.4937 12.4019 58.4505 12.4019 58.3984V49.6679C12.4019 49.645 12.4209 49.6273 12.4425 49.6273C12.4564 49.6273 12.4691 49.6349 12.4768 49.6463C13.142 50.6695 13.7933 51.7106 14.4318 52.7681C14.5232 52.9192 14.5702 53.0842 14.5728 53.2607Z" fill="#005fff"/>
  <path d="M65.5 63.865V64.0237C65.3921 64.5734 65.0607 64.8997 64.5085 65H1.47627C0.939258 64.8933 0.614258 64.5734 0.5 64.0402V63.7863C0.66123 63.0551 1.12207 62.8418 1.86094 62.8418H10.1789C10.2145 62.8418 10.2437 62.8126 10.2437 62.777V60.7483C10.2437 60.6975 10.2855 60.6557 10.3376 60.6557L16.6853 60.6506C16.7284 60.6506 16.75 60.6722 16.75 60.7141V62.7466C16.75 62.81 16.7817 62.8418 16.8452 62.8418H32.9365C32.9721 62.8418 33 62.8139 33 62.7783V60.7331C33 60.681 33.0267 60.6544 33.0787 60.6544L39.4556 60.6506C39.4848 60.6506 39.5089 60.6747 39.5089 60.7039L39.5 62.7872C39.5 62.8177 39.5241 62.8418 39.5546 62.8418C47.7139 62.8418 55.877 62.8418 64.0438 62.8418C64.8513 62.8418 65.3756 63.0221 65.5 63.865Z" fill="#005fff"/>
  <path d="M55.9836 9.94303C55.6764 9.63581 55.425 9.63708 55.1152 9.94684C54.0856 10.9764 53.0535 12.0048 52.0265 13.0382C51.9465 13.1181 51.9071 13.1207 51.8259 13.0382C51.3092 12.5138 50.7887 11.9946 50.2669 11.4766C50.0168 11.2278 49.7438 11.2278 49.4925 11.4741C49.335 11.629 49.1764 11.7826 49.0265 11.9438C48.826 12.1596 48.8222 12.4326 49.0291 12.6408C49.8759 13.4939 50.7265 14.342 51.577 15.19C51.6748 15.2878 51.7941 15.3385 51.935 15.3335C52.0823 15.336 52.1978 15.2713 52.2994 15.1697C53.6616 13.8062 55.0251 12.444 56.386 11.0805C56.6095 10.8571 56.6069 10.5765 56.3898 10.3493C56.2578 10.2109 56.1194 10.0776 55.9848 9.94303H55.9836Z" fill="#005fff"/>
  <path d="M52.5002 0C45.321 0 39.5015 5.81953 39.5015 12.9987C39.5015 20.1779 45.321 25.9975 52.5002 25.9975C59.6794 25.9975 65.4989 20.1779 65.4989 12.9987C65.4989 5.81953 59.6794 0 52.5002 0ZM59.2186 11.1122C59.1932 12.1685 59.0916 13.2146 58.8555 14.2454C58.6193 15.2801 58.2423 16.2513 57.5809 17.1019C56.3304 18.7116 54.7409 19.8326 52.8074 20.4737C52.6043 20.541 52.4075 20.5524 52.2044 20.4763C52.0533 20.4204 51.8984 20.3747 51.7474 20.3176C50.3191 19.7729 49.0775 18.9478 48.034 17.8306C47.3319 17.079 46.7594 16.2475 46.4306 15.2598C46.0154 14.0118 45.844 12.7258 45.792 11.4194C45.7412 10.1728 45.7996 8.92988 45.9393 7.68955C45.9748 7.36836 46.0916 7.23125 46.4039 7.14492C48.1749 6.65361 49.9472 6.1623 51.7169 5.66719C51.9302 5.60752 52.1523 5.57324 52.3517 5.46787H52.5865C52.6271 5.52119 52.6932 5.50215 52.7452 5.51738C54.699 6.06328 56.6554 6.60537 58.6105 7.14873C58.905 7.23125 59.0243 7.37598 59.0599 7.69209C59.1868 8.82832 59.2439 9.96836 59.2173 11.1122H59.2186Z" fill="#005fff"/>
</svg>