<svg width="13" height="13" viewBox="0 0 13 13" fill="none" xmlns="http://www.w3.org/2000/svg">
<path d="M2.78679 7.81863L1.69938 6.12495C1.69512 6.11832 1.68564 6.11642 1.679 6.12069C1.67473 6.12353 1.67236 6.12827 1.67236 6.13301V12.7404C1.67284 12.7484 1.67947 12.7551 1.68753 12.7551L2.78773 12.7527C2.79579 12.7527 2.80243 12.7461 2.80243 12.738L2.78916 7.82669C2.78916 7.82384 2.78821 7.821 2.78679 7.81863Z" fill="black"/>
<path d="M4.55632 10.2835L3.46891 8.5898C3.46465 8.58316 3.45517 8.58126 3.44853 8.58553C3.44426 8.58837 3.44189 8.59311 3.44189 8.59785V12.7403C3.44237 12.7484 3.449 12.755 3.45706 12.755L4.55727 12.7526C4.56532 12.7526 4.57196 12.746 4.57196 12.738L4.55869 10.2915C4.55869 10.2887 4.55774 10.2858 4.55632 10.2835Z" fill="black"/>
<path d="M6.95485 3.98941H5.39058C5.25643 3.98941 5.13129 3.92115 5.05877 3.80786L3.24658 0.982221C3.07831 0.719613 3.26697 0.375 3.5784 0.375H5.14267C5.27682 0.375 5.40196 0.443259 5.47448 0.55655L7.28619 3.38219C7.45447 3.64479 7.26581 3.98941 6.95438 3.98941H6.95485Z" fill="black"/>
<path d="M3.77125 3.98941H2.20699C2.07284 3.98941 1.9477 3.92115 1.87517 3.80786L0.0629908 0.982221C-0.105287 0.719613 0.0833736 0.375 0.394805 0.375H1.95907C2.09322 0.375 2.21836 0.443259 2.29089 0.55655L4.10259 3.38219C4.27087 3.64479 4.08221 3.98941 3.77078 3.98941H3.77125Z" fill="black"/>
<path d="M9.69046 8.37124H8.12619C7.99204 8.37124 7.8669 8.30298 7.79437 8.18969L5.98267 5.36406C5.81439 5.10145 6.00305 4.75684 6.31448 4.75684H7.87875C8.0129 4.75684 8.13804 4.82509 8.21057 4.93839L10.0223 7.76402C10.1905 8.02663 10.0019 8.37124 9.69046 8.37124Z" fill="black"/>
<path d="M6.50687 8.37124H4.9426C4.80845 8.37124 4.68331 8.30298 4.61078 8.18969L2.79907 5.36406C2.6308 5.10145 2.81946 4.75684 3.13089 4.75684H4.69516C4.82931 4.75684 4.95445 4.82509 5.02697 4.93839L6.83868 7.76402C7.00696 8.02663 6.8183 8.37124 6.50687 8.37124Z" fill="black"/>
<path d="M12.5274 12.7526H10.9631C10.829 12.7526 10.7038 12.6843 10.6313 12.571L8.81958 9.7454C8.65131 9.4828 8.83997 9.13818 9.1514 9.13818H10.7157C10.8498 9.13818 10.975 9.20644 11.0475 9.31973L12.8592 12.1454C13.0275 12.408 12.8388 12.7526 12.5274 12.7526Z" fill="black"/>
<path d="M9.34378 12.7526H7.77951C7.64536 12.7526 7.52022 12.6843 7.4477 12.571L5.63599 9.7454C5.46771 9.4828 5.65637 9.13818 5.9678 9.13818H7.53207C7.66622 9.13818 7.79136 9.20644 7.86389 9.31973L9.67559 12.1454C9.84387 12.408 9.65521 12.7526 9.34378 12.7526Z" fill="black"/>
</svg>
