<svg xmlns="http://www.w3.org/2000/svg" width="66" height="65" viewBox="0 0 66 65" fill="none">
  <path d="M52.3679 0H52.6218C53.2426 0.115527 53.513 0.490039 53.5651 1.12607C53.6196 1.7875 53.7491 3.44932 53.3073 3.97109C52.8351 4.52842 51.8106 4.38496 51.5262 3.71973C51.3091 3.21318 51.4043 2.15566 51.4094 1.52852C51.4157 0.722363 51.5376 0.184082 52.3679 0Z" fill="#005fff"/>
  <path d="M46.0313 1.73834L45.9547 1.78331C45.463 2.07177 45.2983 2.70417 45.5867 3.19583L46.7148 5.11863C47.0033 5.61029 47.6357 5.77502 48.1274 5.48656L48.204 5.44159C48.6957 5.15314 48.8604 4.52073 48.5719 4.02907L47.4438 2.10627C47.1554 1.61462 46.523 1.44989 46.0313 1.73834Z" fill="#005fff"/>
  <path d="M57.5522 2.10679L56.4241 4.02959C56.1346 4.52306 56.2999 5.1578 56.7934 5.44732L56.8679 5.491C57.3613 5.78052 57.9961 5.61518 58.2856 5.12171L59.4137 3.19891C59.7032 2.70544 59.5379 2.0707 59.0444 1.78118L58.97 1.7375C58.4765 1.44798 57.8417 1.61331 57.5522 2.10679Z" fill="#005fff"/>
  <path d="M41.2807 6.45591L41.2359 6.53264C40.9476 7.02601 41.1138 7.65968 41.6072 7.94798L43.5276 9.07016C44.0209 9.35847 44.6546 9.19223 44.9429 8.69885L44.9878 8.62213C45.2761 8.12875 45.1098 7.49508 44.6164 7.20678L42.6961 6.0846C42.2027 5.7963 41.569 5.96254 41.2807 6.45591Z" fill="#005fff"/>
  <path d="M62.3079 6.08703L60.3851 7.21513C59.8922 7.5043 59.7271 8.13826 60.0163 8.63112L60.0612 8.70777C60.3504 9.20064 60.9843 9.36578 61.4772 9.07661L63.4 7.94851C63.8929 7.65935 64.058 7.02539 63.7689 6.53252L63.7239 6.45587C63.4347 5.963 62.8008 5.79787 62.3079 6.08703Z" fill="#005fff"/>
  <path d="M52.5001 19.4886C56.0843 19.4886 58.9899 16.583 58.9899 12.9988C58.9899 9.41451 56.0843 6.50891 52.5001 6.50891C48.9159 6.50891 46.0103 9.41451 46.0103 12.9988C46.0103 16.583 48.9159 19.4886 52.5001 19.4886Z" fill="#005fff"/>
  <path d="M42.7793 11.9158H40.55C39.9828 11.9158 39.5229 12.3757 39.5229 12.9429V13.0521C39.5229 13.6193 39.9828 14.0791 40.55 14.0791H42.7793C43.3465 14.0791 43.8063 13.6193 43.8063 13.0521V12.9429C43.8063 12.3757 43.3465 11.9158 42.7793 11.9158Z" fill="#005fff"/>
  <path d="M65.5 12.9568V13.1155C65.3654 13.7541 65.0036 14.0778 64.4145 14.0855C63.7315 14.0943 62.4074 14.2302 61.8094 13.9725C60.9919 13.6195 60.9639 12.4655 61.7523 12.0479C62.2741 11.7724 63.7214 11.8892 64.3269 11.9285C65.0163 11.973 65.4124 12.2776 65.5 12.9568Z" fill="#005fff"/>
  <path d="M43.5322 16.925L41.6052 18.051C41.1119 18.3393 40.9456 18.973 41.2339 19.4663L41.2788 19.5431C41.5671 20.0364 42.2007 20.2027 42.6941 19.9144L44.6211 18.7883C45.1144 18.5 45.2807 17.8664 44.9924 17.373L44.9475 17.2963C44.6592 16.8029 44.0256 16.6367 43.5322 16.925Z" fill="#005fff"/>
  <path d="M60.0497 17.2836L60.0046 17.3601C59.7146 17.8525 59.8786 18.4868 60.371 18.7768L62.2984 19.9121C62.7907 20.2021 63.425 20.0381 63.715 19.5457L63.7601 19.4692C64.0501 18.9768 63.8861 18.3426 63.3938 18.0525L61.4664 16.9172C60.974 16.6272 60.3398 16.7912 60.0497 17.2836Z" fill="#005fff"/>
  <path d="M46.7124 20.884L45.5928 22.8C45.3045 23.2934 45.4708 23.9271 45.9641 24.2154L46.0365 24.2577C46.5298 24.546 47.1635 24.3797 47.4518 23.8863L48.5714 21.9703C48.8597 21.477 48.6935 20.8433 48.2001 20.555L48.1278 20.5127C47.6344 20.2244 47.0007 20.3907 46.7124 20.884Z" fill="#005fff"/>
  <path d="M56.8634 20.5021L56.7889 20.5458C56.296 20.8349 56.1309 21.4689 56.4201 21.9618L57.5533 23.8933C57.8425 24.3862 58.4764 24.5513 58.9693 24.2621L59.0438 24.2185C59.5366 23.9293 59.7018 23.2953 59.4126 22.8025L58.2794 20.8709C57.9902 20.378 57.3562 20.2129 56.8634 20.5021Z" fill="#005fff"/>
  <path d="M52.5559 21.6925H52.4467C51.8802 21.6925 51.4209 22.1518 51.4209 22.7183V24.9501C51.4209 25.5166 51.8802 25.9759 52.4467 25.9759H52.5559C53.1224 25.9759 53.5816 25.5166 53.5816 24.9501V22.7183C53.5816 22.1518 53.1224 21.6925 52.5559 21.6925Z" fill="#005fff"/>
  <path d="M26.0504 30.3418C25.9971 30.3418 25.9489 30.3139 25.9222 30.2694C25.0716 28.8806 24.2121 27.493 23.345 26.1054C23.0277 25.5988 22.855 25.2218 22.8283 24.9729C22.7408 24.1795 23.4301 23.8342 24.1474 23.8342C28.3673 23.8354 32.5872 23.8367 36.8084 23.8342C37.2985 23.8342 37.5993 24.0627 37.8659 24.4918C39.0593 26.4088 40.2489 28.3258 41.4333 30.2415C41.4524 30.272 41.4435 30.3113 41.413 30.3304C41.4029 30.3367 41.3914 30.3405 41.3787 30.3405H26.0504V30.3418Z" fill="#005fff"/>
  <path d="M14.2429 31.4412C14.5781 31.4438 14.8536 31.5707 15.0402 31.8551C15.8793 33.131 16.702 34.4119 17.5094 35.7005C17.517 35.7132 17.512 35.7284 17.5005 35.7348C17.4967 35.7373 17.4929 35.7386 17.4878 35.7386L6.33881 35.736C6.29946 35.736 6.26391 35.717 6.2436 35.684C5.77641 34.9438 5.30922 34.2075 4.84331 33.475C4.59575 33.0865 4.46499 32.7704 4.44975 32.5254C4.40278 31.7586 5.02866 31.4209 5.73579 31.4209C8.57065 31.4209 11.4068 31.4285 14.2429 31.4412Z" fill="#005fff"/>
  <path d="M27.3862 32.5H42.8046C42.8211 32.5 42.8351 32.5076 42.844 32.5216L47.4816 40.0156C47.4943 40.0372 47.4879 40.0652 47.4664 40.0791C47.4587 40.0842 47.4499 40.0855 47.4422 40.0855H32.0251C32.0085 40.0855 31.9946 40.0778 31.9857 40.0639L27.3468 32.5698C27.3341 32.5483 27.3405 32.5203 27.3621 32.5064C27.3697 32.5013 27.3786 32.4987 27.3862 32.5Z" fill="#005fff"/>
  <path d="M22.119 43.3228H11.1262C11.0843 43.3228 11.0449 43.3012 11.0221 43.2657L7.69463 37.9908C7.67559 37.9616 7.68448 37.9235 7.71368 37.9044C7.72002 37.9006 7.72637 37.8981 7.73272 37.8968C7.75557 37.8905 7.77715 37.8943 7.7962 37.907C7.81778 37.9209 7.84063 37.9273 7.86475 37.9273H18.8449C18.8868 37.9273 18.9262 37.9489 18.9478 37.9844L22.2625 43.2352C22.2714 43.2504 22.2752 43.2669 22.2727 43.2847C22.2587 43.3621 22.2295 43.3825 22.1863 43.3469C22.1673 43.3304 22.1444 43.3228 22.119 43.3228Z" fill="#005fff"/>
  <path d="M40.0421 51.9873C39.5813 51.9873 39.2449 51.802 39.0024 51.4109C37.1298 48.3844 35.2547 45.3515 33.3771 42.3122C33.3644 42.2906 33.3708 42.2627 33.3923 42.25C33.3987 42.2462 33.4076 42.2437 33.4152 42.2437H48.7727C48.8273 42.2437 48.8781 42.2716 48.906 42.3186C50.4777 44.8614 52.0291 47.3675 53.5601 49.838C53.8496 50.3039 54.0006 50.6657 54.0121 50.9222C54.0451 51.6534 53.4433 51.9873 52.7628 51.9873H40.0421Z" fill="#005fff"/>
  <path d="M17.2044 51.9873C16.7994 51.9873 16.449 51.8502 16.2256 51.4985C14.9713 49.5219 13.7183 47.5427 12.4652 45.5584C12.4563 45.5444 12.4602 45.5254 12.4741 45.5165C12.4792 45.5127 12.4855 45.5114 12.4919 45.5114L23.6371 45.514C23.6765 45.514 23.7082 45.5305 23.7298 45.5647C24.6781 47.0615 25.6227 48.5583 26.5634 50.0525C27.2032 51.0682 26.8808 51.9873 25.5896 51.9873H17.2044Z" fill="#005fff"/>
  <path d="M35.2509 49.5092C35.9542 50.5388 36.6105 51.595 37.2187 52.6779C37.3063 52.8328 37.3494 53.0004 37.3494 53.1807C37.3481 54.9339 37.3469 56.6833 37.3481 58.4276C37.3481 58.4644 37.3189 58.4936 37.2834 58.4936H35.2369C35.1849 58.4936 35.1582 58.467 35.1582 58.4137V49.5371C35.1582 49.4279 35.1887 49.419 35.2509 49.5092Z" fill="#005fff"/>
  <path d="M14.5728 53.2607C14.5994 54.9174 14.6032 56.6325 14.5842 58.4061C14.5842 58.4645 14.5537 58.4937 14.4953 58.4937H12.4971C12.445 58.4937 12.4019 58.4505 12.4019 58.3984V49.6679C12.4019 49.645 12.4209 49.6273 12.4425 49.6273C12.4564 49.6273 12.4691 49.6349 12.4768 49.6463C13.142 50.6695 13.7933 51.7106 14.4318 52.7681C14.5232 52.9192 14.5702 53.0842 14.5728 53.2607Z" fill="#005fff"/>
  <path d="M65.5 63.865V64.0237C65.3921 64.5734 65.0607 64.8997 64.5085 65H1.47627C0.939258 64.8933 0.614258 64.5734 0.5 64.0402V63.7863C0.66123 63.0551 1.12207 62.8418 1.86094 62.8418H10.1789C10.2145 62.8418 10.2437 62.8126 10.2437 62.777V60.7483C10.2437 60.6975 10.2855 60.6557 10.3376 60.6557L16.6853 60.6506C16.7284 60.6506 16.75 60.6722 16.75 60.7141V62.7466C16.75 62.81 16.7817 62.8418 16.8452 62.8418H32.9365C32.9721 62.8418 33 62.8139 33 62.7783V60.7331C33 60.681 33.0267 60.6544 33.0787 60.6544L39.4556 60.6506C39.4848 60.6506 39.5089 60.6747 39.5089 60.7039L39.5 62.7872C39.5 62.8177 39.5241 62.8418 39.5546 62.8418C47.7139 62.8418 55.877 62.8418 64.0438 62.8418C64.8513 62.8418 65.3756 63.0221 65.5 63.865Z" fill="#005fff"/>
</svg>