<svg width="300" height="87" viewBox="0 0 300 87" fill="none" xmlns="http://www.w3.org/2000/svg">
<g clip-path="url(#clip0_1145_36)">
<path d="M253.945 61.9439C257.566 61.9439 260.599 64.9008 260.599 68.5358C260.599 72.1688 257.65 75.1272 253.945 75.1272H254.029L251.504 75.2119H247.964L204.753 75.2962C204.08 75.2962 203.574 74.7052 203.743 74.0286L205.509 67.014H203.824L199.529 74.9582C199.445 75.2115 198.941 75.4653 198.689 75.4653L134.925 75.5492C134.335 75.5492 133.913 75.0421 133.998 74.4506L134.586 68.5354C128.102 74.1126 119.172 75.3802 113.865 75.3802H87.7534C86.9956 75.3802 86.5743 74.7887 86.8265 74.0282L87.7534 71.24C83.4585 74.4506 77.7302 76.8176 69.9818 76.8176C60.8855 76.8176 55.4936 73.4364 53.2203 68.1969C47.6606 73.6054 39.1529 76.7329 30.6437 76.7329C28.0339 76.7329 25.4221 76.4791 22.9797 75.8877L19.8628 85.5223C19.5247 86.4506 18.5979 86.5346 18.0935 85.6902L0.152534 56.6197C-0.187103 56.1122 0.0662649 55.436 0.656939 55.1826L26.6851 44.4491C26.6007 44.2804 26.516 44.0282 26.4317 43.8592C25.0836 40.3933 24.8318 34.5623 25.6739 30.843C27.022 25.0968 34.1804 10.8145 53.3027 11.6597C57.1778 11.8288 62.232 13.4348 65.6008 15.2943L66.6107 12.843C66.7798 12.5049 67.201 12.1668 67.6234 12.1668L128.606 11.9978C132.734 11.9978 137.199 12.9277 140.566 15.21L140.82 13.0968C140.82 12.5896 141.324 12.2516 141.745 12.2516H250.32C250.827 12.2516 251.247 12.6744 251.333 13.1815L252.681 23.9135C256.975 19.2662 260.429 16.3937 264.809 14.1957C268.264 12.4206 272.559 12.0825 275.423 11.9982H276.856L280.477 0.759074C280.729 -0.170848 281.74 -0.255175 282.245 0.590032L299.849 29.1545C300.187 29.746 299.934 30.3378 299.343 30.5916L268.768 42.9297C267.841 43.3521 267.166 42.6759 267.42 41.7464L268.346 38.8723C266.241 40.9855 264.052 43.5211 261.86 46.3937C258.914 50.282 255.208 58.0571 254.195 61.014L253.943 61.7745" fill="#2A2A2A"/>
<path d="M276.602 28.6473L274.581 35.2387L293.196 27.7174L282.584 10.4767L280.478 17.0685C280.478 17.0685 271.802 16.2249 267.086 18.5899C263.126 20.6188 260.009 23.1544 255.546 28.0554C253.271 30.5067 249.228 36.5067 249.228 36.5067L246.701 17.0685H233.138L237.771 47.4078L229.685 70.5641H245.69C245.69 70.5641 249.228 60.422 249.564 59.4097C250.659 56.1144 254.618 47.7478 257.902 43.4367C263.715 35.8306 270.79 28.4782 276.602 28.6473Z" fill="#D9D9D9"/>
<path d="M91.7981 17.5753L80.5944 51.2115C80.0873 52.5626 79.5817 54.3374 78.6564 55.8587C77.8155 57.2958 76.5506 58.3928 74.4448 58.3928C72.5068 58.3928 72.0024 57.2958 72.0024 55.7744C72.0871 54.3374 72.7617 52.5622 73.2661 51.1252L84.4695 17.5753H70.066L58.3582 52.4779C56.2524 58.9003 53.3041 71.8303 69.9813 71.8303C86.6601 71.8303 92.3853 58.9007 94.5774 52.4779L106.202 17.5753H91.7981Z" fill="white"/>
<path d="M176.956 70.5637L205.427 17.1528H191.444L175.86 50.2818C176.533 46.3935 181.587 17.1528 181.587 17.1528H169.205C169.205 17.1528 154.885 46.5625 153.2 50.5352L159.518 17.1528H145.283L139.385 70.5637H153.368L168.783 37.1829C168.026 40.8163 162.971 70.5637 162.971 70.5637H176.956ZM206.606 51.0423H213.85L217.05 31.5194L206.606 51.0423ZM211.575 17.1528H231.202L224.884 70.6484H209.721L211.659 62.0277H200.961L196.329 70.479H182.937L211.575 17.1528Z" fill="#D9D9D9"/>
<path d="M17.7577 75.8033L6.80615 57.9723L26.0963 50.0285L23.9889 56.7047C26.3497 58.2245 29.129 58.6473 31.7404 58.4783C34.0137 58.3089 36.7094 57.2962 37.5519 55.352C38.0575 54.084 37.3825 51.2118 35.5308 49.3524C33.4249 47.1545 31.9094 44.2807 31.0657 42.0844C30.1401 39.5488 29.802 34.8164 30.4782 31.9427C31.5709 27.5488 37.2169 15.8868 53.0516 16.6477C56.5055 16.7309 61.5593 18.506 64.0848 20.1121L58.1885 31.3512C51.5345 27.3801 47.4923 28.8171 45.9748 32.4502C44.4608 36.0852 46.9875 39.5491 49.3444 42.3385C52.2923 45.7182 54.6515 49.3532 54.6515 53.6627C54.6515 63.7197 43.8694 71.8314 30.6445 71.8314C26.6862 71.8314 22.9805 71.0725 19.7788 69.8041L17.7577 75.8033ZM93.2291 70.7328H113.865C121.11 70.7328 132.902 68.2815 136.525 57.2962C138.631 50.9581 134.839 44.9565 130.965 42.9296C135.092 41.4078 139.136 36.2534 140.316 32.196C143.6 20.6188 136.694 17.3223 128.606 17.3223H111.002L93.2291 70.7328ZM115.298 49.4363C120.352 49.183 123.385 51.1256 122.542 54.5915C121.785 57.9723 119.004 59.1545 115.972 59.1545H112.013L115.298 49.4363ZM117.994 38.1956L121.194 28.9007H123.635C125.656 28.9007 129.363 29.2388 127.594 33.8017C126.08 37.4367 122.204 38.1956 120.015 38.1956H117.994Z" fill="white"/>
<path d="M253.354 68.2815V67.3515H253.943C254.281 67.3515 254.616 67.4363 254.616 67.774C254.616 68.2815 254.28 68.2815 253.943 68.2815H253.354ZM253.354 68.7039H253.86L254.701 69.9723H255.208L254.366 68.7039C254.787 68.6196 255.124 68.3662 255.124 67.8591C255.124 67.1829 254.787 66.9291 254.029 66.9291H252.935V69.9719H253.356V68.7035H253.354V68.7039ZM253.944 71.1556C255.375 71.1556 256.556 69.9723 256.556 68.4505C256.556 66.9295 255.375 65.8306 253.944 65.8306C252.429 65.8306 251.248 66.9295 251.248 68.4505C251.248 69.9723 252.427 71.1556 253.944 71.1556ZM251.754 68.4505C251.754 67.1829 252.681 66.2534 253.944 66.2534C255.123 66.2534 256.05 67.1833 256.05 68.4505C256.05 69.7189 255.123 70.7328 253.944 70.7328C252.681 70.7328 251.754 69.7185 251.754 68.4505Z" fill="#D9D9D9"/>
</g>
<defs>
<clipPath id="clip0_1145_36">
<rect width="300" height="86.28" fill="white"/>
</clipPath>
</defs>
</svg>
