<svg width="64" height="64" viewBox="0 0 64 64" fill="none" xmlns="http://www.w3.org/2000/svg">
<path d="M18.6665 53.3333H45.3332" stroke="#315FFF" stroke-width="5" stroke-linecap="round" stroke-linejoin="round"/>
<path d="M26.6665 53.3334C41.3332 46.6667 28.7998 36.2667 34.6665 26.6667" stroke="#315FFF" stroke-width="5" stroke-linecap="round" stroke-linejoin="round"/>
<path d="M25.3332 25.0666C28.2665 27.1999 30.1332 30.9333 31.4665 34.9333C26.1332 35.9999 22.1332 35.9999 18.6665 34.1333C15.4665 32.5333 12.5332 29.0666 10.6665 22.9333C18.1332 21.5999 22.3998 22.9333 25.3332 25.0666Z" stroke="#315FFF" stroke-width="5" stroke-linecap="round" stroke-linejoin="round"/>
<path d="M37.5999 16.0001C35.5668 19.1776 34.5441 22.8965 34.6666 26.6667C39.7332 26.4001 43.4666 25.0667 46.1332 22.9334C48.7999 20.2667 50.3999 16.8001 50.6666 10.6667C43.4666 10.9334 39.9999 13.3334 37.5999 16.0001Z" stroke="#315FFF" stroke-width="5" stroke-linecap="round" stroke-linejoin="round"/>
</svg>
